<mxfile host="app.diagrams.net" modified="2020-07-22T19:59:22.576Z" agent="5.0 (Windows NT 10.0; Win64; x64) AppleWebKit/537.36 (KHTML, like Gecko) Chrome/81.0.4044.113 Safari/537.36 Edg/81.0.416.62" etag="yiFZl2-BRvxAtzgCHaGC" version="13.4.9" type="github">
  <diagram id="31b32b95-0358-9bc7-6ba0-a27c054ed1a7" name="Page-1">
    <mxGraphModel dx="1422" dy="1931" grid="1" gridSize="10" guides="1" tooltips="1" connect="1" arrows="1" fold="1" page="1" pageScale="1" pageWidth="827" pageHeight="1169" background="#ffffff" math="0" shadow="0">
      <root>
        <mxCell id="0" />
        <mxCell id="1" parent="0" />
        <mxCell id="2" value="" style="swimlane;shadow=0;strokeColor=#4277BB;fillColor=#ffffff;fontColor=#4277BB;align=right;startSize=0;collapsible=0;strokeWidth=3;" parent="1" vertex="1">
          <mxGeometry x="220" y="130" width="1160" height="1020" as="geometry" />
        </mxCell>
        <mxCell id="3" value="PUBLIC NETWORK" style="text;html=1;align=left;verticalAlign=top;fontColor=#4277BB;shadow=0;dashed=0;strokeColor=none;fillColor=none;labelBackgroundColor=none;fontStyle=1;fontSize=16;spacingLeft=5;" parent="2" vertex="1">
          <mxGeometry width="170" height="30" as="geometry" />
        </mxCell>
        <mxCell id="4" value="" style="line;strokeWidth=3;direction=south;html=1;shadow=0;labelBackgroundColor=none;fillColor=none;gradientColor=none;fontSize=12;fontColor=#4277BB;align=right;strokeColor=#4277BB;" parent="2" vertex="1">
          <mxGeometry x="205" width="10" height="250" as="geometry" />
        </mxCell>
        <mxCell id="5" value="GRUPO FIRMA" style="text;html=1;align=left;verticalAlign=top;fontColor=#4277BB;shadow=0;dashed=0;strokeColor=none;fillColor=none;labelBackgroundColor=none;fontStyle=1;fontSize=16;spacingLeft=5;" parent="2" vertex="1">
          <mxGeometry x="210" width="180" height="35" as="geometry" />
        </mxCell>
        <mxCell id="16" value="" style="line;strokeWidth=3;direction=south;html=1;shadow=0;labelBackgroundColor=none;fillColor=none;gradientColor=none;fontSize=12;fontColor=#4277BB;align=right;strokeColor=#4277BB;" parent="2" vertex="1">
          <mxGeometry x="205" y="370" width="10" height="520" as="geometry" />
        </mxCell>
        <mxCell id="17" value="" style="swimlane;shadow=0;strokeColor=#4277BB;fillColor=#ffffff;fontColor=#4277BB;align=right;startSize=0;collapsible=0;strokeWidth=3;" parent="2" vertex="1">
          <mxGeometry x="390" y="660" width="520" height="120" as="geometry" />
        </mxCell>
        <mxCell id="BpT26VlfYUc4pVUIWCvp-100" value="INTEGRACION&amp;nbsp;&lt;br&gt;DATOS&lt;br&gt;" style="aspect=fixed;perimeter=ellipsePerimeter;html=1;align=center;shadow=0;dashed=0;fontColor=#4277BB;labelBackgroundColor=#ffffff;fontSize=12;spacingTop=3;image;image=img/lib/ibm/analytics/data_integration.svg;" vertex="1" parent="17">
          <mxGeometry x="224" y="15" width="60" height="60" as="geometry" />
        </mxCell>
        <mxCell id="BpT26VlfYUc4pVUIWCvp-101" value="LOCAL&lt;br&gt;DB" style="aspect=fixed;perimeter=ellipsePerimeter;html=1;align=center;shadow=0;dashed=0;fontColor=#4277BB;labelBackgroundColor=#ffffff;fontSize=12;spacingTop=3;image;image=img/lib/ibm/data/data_services.svg;" vertex="1" parent="17">
          <mxGeometry x="60" y="20" width="60" height="60" as="geometry" />
        </mxCell>
        <mxCell id="19" style="edgeStyle=orthogonalEdgeStyle;rounded=0;comic=0;html=1;exitX=1;exitY=0.5;entryX=0;entryY=0.25;startArrow=classic;startFill=1;endArrow=classic;endFill=1;jettySize=auto;orthogonalLoop=1;strokeColor=#4378BB;strokeWidth=2;fontFamily=Helvetica;fontSize=19;fontColor=#CC99FF;endSize=4;startSize=4;" parent="2" source="20" target="26" edge="1">
          <mxGeometry relative="1" as="geometry">
            <Array as="points">
              <mxPoint x="155" y="106" />
              <mxPoint x="155" y="283" />
              <mxPoint x="180" y="283" />
            </Array>
          </mxGeometry>
        </mxCell>
        <mxCell id="20" value="CLOUD&lt;div&gt;USER&lt;/div&gt;" style="aspect=fixed;perimeter=ellipsePerimeter;html=1;align=center;shadow=0;dashed=0;image;image=img/lib/ibm/users/user.svg;labelBackgroundColor=#ffffff;strokeColor=#666666;strokeWidth=3;fillColor=#C2952D;gradientColor=none;fontSize=12;fontColor=#4277BB;" parent="2" vertex="1">
          <mxGeometry x="55" y="76" width="60" height="60" as="geometry" />
        </mxCell>
        <mxCell id="21" style="edgeStyle=orthogonalEdgeStyle;rounded=0;html=1;labelBackgroundColor=#ffffff;startArrow=classic;startFill=1;startSize=4;endArrow=classic;endFill=1;endSize=4;jettySize=auto;orthogonalLoop=1;strokeColor=#4378BB;strokeWidth=2;fontSize=19;fontColor=#CC99FF;" parent="2" source="22" target="26" edge="1">
          <mxGeometry relative="1" as="geometry">
            <Array as="points">
              <mxPoint x="135" y="216" />
              <mxPoint x="135" y="296" />
            </Array>
          </mxGeometry>
        </mxCell>
        <mxCell id="22" value="DEVICES" style="aspect=fixed;perimeter=ellipsePerimeter;html=1;align=center;shadow=0;dashed=0;image;image=img/lib/ibm/users/device.svg;labelBackgroundColor=#ffffff;strokeColor=#666666;strokeWidth=3;fillColor=#C2952D;gradientColor=none;fontSize=12;fontColor=#4277BB;" parent="2" vertex="1">
          <mxGeometry x="55" y="186" width="60" height="60" as="geometry" />
        </mxCell>
        <mxCell id="25" style="edgeStyle=orthogonalEdgeStyle;rounded=0;html=1;labelBackgroundColor=#ffffff;startArrow=classic;startFill=1;startSize=4;endArrow=classic;endFill=1;endSize=4;jettySize=auto;orthogonalLoop=1;strokeColor=#4378BB;strokeWidth=2;fontSize=19;fontColor=#CC99FF;" parent="2" source="26" target="28" edge="1">
          <mxGeometry relative="1" as="geometry" />
        </mxCell>
        <mxCell id="26" value="EDGE&lt;div&gt;SERVICES&lt;/div&gt;" style="aspect=fixed;perimeter=ellipsePerimeter;html=1;align=center;shadow=0;dashed=0;image;image=img/lib/ibm/infrastructure/edge_services.svg;labelBackgroundColor=#ffffff;strokeColor=#666666;strokeWidth=3;fillColor=#C2952D;gradientColor=none;fontSize=12;fontColor=#4277BB;" parent="2" vertex="1">
          <mxGeometry x="180" y="266" width="60" height="60" as="geometry" />
        </mxCell>
        <mxCell id="27" style="edgeStyle=elbowEdgeStyle;rounded=0;html=1;labelBackgroundColor=#ffffff;startArrow=classic;startFill=1;startSize=4;endArrow=classic;endFill=1;endSize=4;jettySize=auto;orthogonalLoop=1;strokeColor=#4378BB;strokeWidth=2;fontSize=19;fontColor=#CC99FF;elbow=vertical;" parent="2" source="28" target="35" edge="1">
          <mxGeometry relative="1" as="geometry">
            <mxPoint x="380" y="296" as="targetPoint" />
            <Array as="points">
              <mxPoint x="376" y="296" />
            </Array>
          </mxGeometry>
        </mxCell>
        <mxCell id="BpT26VlfYUc4pVUIWCvp-102" style="edgeStyle=orthogonalEdgeStyle;rounded=0;orthogonalLoop=1;jettySize=auto;html=1;entryX=0;entryY=0.5;entryDx=0;entryDy=0;" edge="1" parent="2" source="28" target="29">
          <mxGeometry relative="1" as="geometry" />
        </mxCell>
        <mxCell id="28" value="CLOUD" style="aspect=fixed;perimeter=ellipsePerimeter;html=1;align=center;shadow=0;dashed=0;image;image=img/lib/ibm/management/api_management.svg;labelBackgroundColor=#ffffff;strokeColor=#666666;strokeWidth=3;fillColor=#C2952D;gradientColor=none;fontSize=12;fontColor=#4277BB;" parent="2" vertex="1">
          <mxGeometry x="295" y="266" width="60" height="60" as="geometry" />
        </mxCell>
        <mxCell id="29" value="" style="swimlane;shadow=0;strokeColor=#4277BB;fillColor=#ffffff;fontColor=#4277BB;align=right;startSize=0;collapsible=0;strokeWidth=3;" parent="2" vertex="1">
          <mxGeometry x="350" y="50" width="596" height="135" as="geometry" />
        </mxCell>
        <mxCell id="34" value="PRESENTACION&lt;br&gt;" style="text;html=1;align=left;verticalAlign=top;fontColor=#4277BB;shadow=0;dashed=0;strokeColor=none;fillColor=none;labelBackgroundColor=none;fontStyle=0;fontSize=14;spacingLeft=5;" parent="29" vertex="1">
          <mxGeometry width="90" height="26" as="geometry" />
        </mxCell>
        <mxCell id="BpT26VlfYUc4pVUIWCvp-125" value="" style="group" vertex="1" connectable="0" parent="29">
          <mxGeometry x="40" y="30" width="510" height="60.5" as="geometry" />
        </mxCell>
        <mxCell id="BpT26VlfYUc4pVUIWCvp-110" value="APP RRHH" style="aspect=fixed;perimeter=ellipsePerimeter;html=1;align=center;shadow=0;dashed=0;fontColor=#4277BB;labelBackgroundColor=#ffffff;fontSize=12;spacingTop=3;image;image=img/lib/ibm/applications/api_developer_portal.svg;" vertex="1" parent="BpT26VlfYUc4pVUIWCvp-125">
          <mxGeometry width="60" height="60" as="geometry" />
        </mxCell>
        <mxCell id="BpT26VlfYUc4pVUIWCvp-112" value="BALANCED&amp;nbsp;&lt;br&gt;SCORECARD" style="aspect=fixed;perimeter=ellipsePerimeter;html=1;align=center;shadow=0;dashed=0;fontColor=#4277BB;labelBackgroundColor=#ffffff;fontSize=12;spacingTop=3;image;image=img/lib/ibm/applications/ontology.svg;" vertex="1" parent="BpT26VlfYUc4pVUIWCvp-125">
          <mxGeometry x="450" width="60" height="60" as="geometry" />
        </mxCell>
        <mxCell id="BpT26VlfYUc4pVUIWCvp-113" value="APP FINANZAS&lt;br&gt;" style="aspect=fixed;perimeter=ellipsePerimeter;html=1;align=center;shadow=0;dashed=0;fontColor=#4277BB;labelBackgroundColor=#ffffff;fontSize=12;spacingTop=3;image;image=img/lib/ibm/applications/api_polyglot_runtimes.svg;" vertex="1" parent="BpT26VlfYUc4pVUIWCvp-125">
          <mxGeometry x="222" y="0.5" width="60" height="60" as="geometry" />
        </mxCell>
        <mxCell id="35" value="" style="swimlane;shadow=0;strokeColor=#4277BB;fillColor=#ffffff;fontColor=#4277BB;align=right;startSize=0;collapsible=0;strokeWidth=3;" parent="2" vertex="1">
          <mxGeometry x="394" y="200" width="516" height="170" as="geometry" />
        </mxCell>
        <mxCell id="52" value="SERVICIOS" style="text;html=1;align=left;verticalAlign=top;fontColor=#4277BB;shadow=0;dashed=0;strokeColor=none;fillColor=none;labelBackgroundColor=none;fontStyle=0;fontSize=14;spacingLeft=5;" parent="35" vertex="1">
          <mxGeometry x="2" width="231" height="24" as="geometry" />
        </mxCell>
        <mxCell id="84" style="edgeStyle=orthogonalEdgeStyle;rounded=0;html=1;entryX=0;entryY=0.5;labelBackgroundColor=#ffffff;startArrow=classic;startFill=1;startSize=4;endArrow=classic;endFill=1;endSize=4;jettySize=auto;orthogonalLoop=1;strokeColor=#EEC11B;strokeWidth=2;fontSize=14;fontColor=#4277BB;" parent="35" source="65" target="68" edge="1">
          <mxGeometry relative="1" as="geometry" />
        </mxCell>
        <mxCell id="65" value="" style="swimlane;shadow=0;strokeColor=#4277BB;fillColor=#ffffff;fontColor=#4277BB;align=right;startSize=0;collapsible=0;strokeWidth=3;" parent="35" vertex="1">
          <mxGeometry x="25" y="40" width="100" height="80" as="geometry" />
        </mxCell>
        <mxCell id="66" value="" style="aspect=fixed;perimeter=ellipsePerimeter;html=1;align=center;shadow=0;dashed=0;image;image=img/lib/ibm/applications/microservice.svg;labelBackgroundColor=#ffffff;strokeColor=#666666;strokeWidth=3;fillColor=#C2952D;gradientColor=none;fontSize=12;fontColor=#4277BB;" parent="65" vertex="1">
          <mxGeometry x="9" y="10" width="82" height="60" as="geometry" />
        </mxCell>
        <mxCell id="85" style="edgeStyle=orthogonalEdgeStyle;rounded=0;html=1;entryX=0;entryY=0.5;labelBackgroundColor=#ffffff;startArrow=classic;startFill=1;startSize=4;endArrow=classic;endFill=1;endSize=4;jettySize=auto;orthogonalLoop=1;strokeColor=#EEC11B;strokeWidth=2;fontSize=14;fontColor=#4277BB;" parent="35" source="68" target="70" edge="1">
          <mxGeometry relative="1" as="geometry" />
        </mxCell>
        <mxCell id="93" style="edgeStyle=orthogonalEdgeStyle;rounded=0;html=1;entryX=0.5;entryY=0;labelBackgroundColor=#ffffff;startArrow=classic;startFill=1;startSize=4;endArrow=classic;endFill=1;endSize=4;jettySize=auto;orthogonalLoop=1;strokeColor=#EEC11B;strokeWidth=2;fontSize=14;fontColor=#4277BB;" parent="35" source="68" edge="1">
          <mxGeometry relative="1" as="geometry">
            <mxPoint x="258.9999999999998" y="160" as="targetPoint" />
          </mxGeometry>
        </mxCell>
        <mxCell id="68" value="" style="swimlane;shadow=0;strokeColor=#4277BB;fillColor=#ffffff;fontColor=#4277BB;align=right;startSize=0;collapsible=0;strokeWidth=3;" parent="35" vertex="1">
          <mxGeometry x="209" y="40" width="100" height="80" as="geometry" />
        </mxCell>
        <mxCell id="69" value="" style="aspect=fixed;perimeter=ellipsePerimeter;html=1;align=center;shadow=0;dashed=0;image;image=img/lib/ibm/applications/microservice.svg;labelBackgroundColor=#ffffff;strokeColor=#666666;strokeWidth=3;fillColor=#C2952D;gradientColor=none;fontSize=12;fontColor=#4277BB;" parent="68" vertex="1">
          <mxGeometry x="9" y="10" width="82" height="60" as="geometry" />
        </mxCell>
        <mxCell id="70" value="" style="swimlane;shadow=0;strokeColor=#4277BB;fillColor=#ffffff;fontColor=#4277BB;align=right;startSize=0;collapsible=0;strokeWidth=3;" parent="35" vertex="1">
          <mxGeometry x="386" y="40" width="100" height="80" as="geometry" />
        </mxCell>
        <mxCell id="BpT26VlfYUc4pVUIWCvp-128" value="Monitoreo BI&lt;br&gt;" style="aspect=fixed;perimeter=ellipsePerimeter;html=1;align=center;shadow=0;dashed=0;fontColor=#4277BB;labelBackgroundColor=#ffffff;fontSize=12;spacingTop=3;image;image=img/lib/ibm/security/security_monitoring_intelligence.svg;" vertex="1" parent="70">
          <mxGeometry x="20" y="10" width="60" height="60" as="geometry" />
        </mxCell>
        <mxCell id="55" value="" style="swimlane;shadow=0;strokeColor=#4277BB;fillColor=#ffffff;fontColor=#4277BB;align=right;startSize=0;collapsible=0;strokeWidth=3;" parent="2" vertex="1">
          <mxGeometry x="384" y="390" width="526" height="244" as="geometry" />
        </mxCell>
        <mxCell id="60" value="DOMINIO-NEGOCIO" style="text;html=1;align=left;verticalAlign=top;fontColor=#4277BB;shadow=0;dashed=0;strokeColor=none;fillColor=none;labelBackgroundColor=none;fontStyle=0;fontSize=14;spacingLeft=5;" parent="55" vertex="1">
          <mxGeometry x="1" width="231" height="24" as="geometry" />
        </mxCell>
        <mxCell id="BpT26VlfYUc4pVUIWCvp-111" value="ENTIDADES" style="shape=mxgraph.ibm.box;prType=enterprise;fontStyle=0;verticalAlign=top;align=left;spacingLeft=32;spacingTop=4;fillColor=none;rounded=0;whiteSpace=wrap;html=1;strokeColor=#4376BB;strokeWidth=3;dashed=0;container=1;spacing=-4;collapsible=0;expand=0;recursiveResize=0;" vertex="1" parent="55">
          <mxGeometry x="13" y="40" width="257" height="184" as="geometry" />
        </mxCell>
        <mxCell id="BpT26VlfYUc4pVUIWCvp-114" value="ABOGADOS&lt;br&gt;" style="aspect=fixed;perimeter=ellipsePerimeter;html=1;align=center;shadow=0;dashed=0;fontColor=#4277BB;labelBackgroundColor=#ffffff;fontSize=12;spacingTop=3;image;image=img/lib/ibm/blockchain/consensus.svg;" vertex="1" parent="BpT26VlfYUc4pVUIWCvp-111">
          <mxGeometry x="21" y="34" width="36" height="36" as="geometry" />
        </mxCell>
        <mxCell id="BpT26VlfYUc4pVUIWCvp-116" value="RENTACAR" style="aspect=fixed;perimeter=ellipsePerimeter;html=1;align=center;shadow=0;dashed=0;fontColor=#4277BB;labelBackgroundColor=#ffffff;fontSize=12;spacingTop=3;image;image=img/lib/ibm/blockchain/consensus.svg;" vertex="1" parent="BpT26VlfYUc4pVUIWCvp-111">
          <mxGeometry x="93" y="34" width="36" height="36" as="geometry" />
        </mxCell>
        <mxCell id="BpT26VlfYUc4pVUIWCvp-117" value="LUBRICENTRO" style="aspect=fixed;perimeter=ellipsePerimeter;html=1;align=center;shadow=0;dashed=0;fontColor=#4277BB;labelBackgroundColor=#ffffff;fontSize=12;spacingTop=3;image;image=img/lib/ibm/blockchain/consensus.svg;" vertex="1" parent="BpT26VlfYUc4pVUIWCvp-111">
          <mxGeometry x="21" y="104" width="36" height="36" as="geometry" />
        </mxCell>
        <mxCell id="BpT26VlfYUc4pVUIWCvp-118" value="AGROFIRMA" style="aspect=fixed;perimeter=ellipsePerimeter;html=1;align=center;shadow=0;dashed=0;fontColor=#4277BB;labelBackgroundColor=#ffffff;fontSize=12;spacingTop=3;image;image=img/lib/ibm/blockchain/consensus.svg;" vertex="1" parent="BpT26VlfYUc4pVUIWCvp-111">
          <mxGeometry x="113" y="104" width="36" height="36" as="geometry" />
        </mxCell>
        <mxCell id="BpT26VlfYUc4pVUIWCvp-119" value="INMOBILIARIA&lt;br&gt;" style="aspect=fixed;perimeter=ellipsePerimeter;html=1;align=center;shadow=0;dashed=0;fontColor=#4277BB;labelBackgroundColor=#ffffff;fontSize=12;spacingTop=3;image;image=img/lib/ibm/blockchain/consensus.svg;" vertex="1" parent="BpT26VlfYUc4pVUIWCvp-111">
          <mxGeometry x="183" y="34" width="36" height="36" as="geometry" />
        </mxCell>
        <mxCell id="BpT26VlfYUc4pVUIWCvp-120" value="FINANCIERA&lt;br&gt;" style="aspect=fixed;perimeter=ellipsePerimeter;html=1;align=center;shadow=0;dashed=0;fontColor=#4277BB;labelBackgroundColor=#ffffff;fontSize=12;spacingTop=3;image;image=img/lib/ibm/blockchain/consensus.svg;" vertex="1" parent="BpT26VlfYUc4pVUIWCvp-111">
          <mxGeometry x="193" y="104" width="36" height="36" as="geometry" />
        </mxCell>
        <mxCell id="BpT26VlfYUc4pVUIWCvp-121" value="SERVICIOS DE DOMMINIO" style="fontStyle=0;verticalAlign=top;align=center;spacingTop=-2;fillColor=none;rounded=0;whiteSpace=wrap;html=1;strokeColor=#4376BB;strokeWidth=1;dashed=0;container=1;collapsible=0;expand=0;recursiveResize=0;" vertex="1" parent="55">
          <mxGeometry x="296" y="31" width="200" height="202" as="geometry" />
        </mxCell>
        <mxCell id="BpT26VlfYUc4pVUIWCvp-122" value="FINANZAS" style="aspect=fixed;perimeter=ellipsePerimeter;html=1;align=center;shadow=0;dashed=0;fontColor=#4277BB;labelBackgroundColor=#ffffff;fontSize=12;spacingTop=3;image;image=img/lib/ibm/management/monitoring_metrics.svg;" vertex="1" parent="BpT26VlfYUc4pVUIWCvp-121">
          <mxGeometry x="12" y="30" width="42" height="42" as="geometry" />
        </mxCell>
        <mxCell id="BpT26VlfYUc4pVUIWCvp-126" value="Juridico" style="aspect=fixed;perimeter=ellipsePerimeter;html=1;align=center;shadow=0;dashed=0;fontColor=#4277BB;labelBackgroundColor=#ffffff;fontSize=12;spacingTop=3;image;image=img/lib/ibm/management/information_governance.svg;" vertex="1" parent="BpT26VlfYUc4pVUIWCvp-121">
          <mxGeometry x="14" y="110" width="40" height="40" as="geometry" />
        </mxCell>
        <mxCell id="BpT26VlfYUc4pVUIWCvp-127" value="RRHH" style="aspect=fixed;perimeter=ellipsePerimeter;html=1;align=center;shadow=0;dashed=0;fontColor=#4277BB;labelBackgroundColor=#ffffff;fontSize=12;spacingTop=3;image;image=img/lib/ibm/management/it_service_management.svg;" vertex="1" parent="BpT26VlfYUc4pVUIWCvp-121">
          <mxGeometry x="90" y="110" width="40" height="40" as="geometry" />
        </mxCell>
        <mxCell id="BpT26VlfYUc4pVUIWCvp-123" value="ingresos / egresos&lt;br&gt;inversiones&lt;br&gt;caja&lt;br&gt;balance&lt;br&gt;gastos administrativos&lt;br&gt;boletas facturas&lt;br&gt;asignacion bancos&amp;nbsp;&lt;br&gt;cuentas corrientes&lt;br&gt;gastos operacionales&lt;br&gt;compra venta&lt;br&gt;" style="whiteSpace=wrap;html=1;shadow=0;dashed=0;fontColor=#4277BB;verticalAlign=top;labelBackgroundColor=white;spacingTop=3;" vertex="1" parent="2">
          <mxGeometry x="930" y="240" width="200" height="180" as="geometry" />
        </mxCell>
        <mxCell id="BpT26VlfYUc4pVUIWCvp-124" value="" style="edgeStyle=orthogonalEdgeStyle;rounded=0;orthogonalLoop=1;jettySize=auto;html=1;exitX=0.5;exitY=0;exitDx=0;exitDy=0;" edge="1" parent="2" source="BpT26VlfYUc4pVUIWCvp-122" target="BpT26VlfYUc4pVUIWCvp-123">
          <mxGeometry relative="1" as="geometry">
            <Array as="points">
              <mxPoint x="713" y="400" />
              <mxPoint x="890" y="400" />
              <mxPoint x="890" y="440" />
              <mxPoint x="1030" y="440" />
            </Array>
          </mxGeometry>
        </mxCell>
        <mxCell id="94" style="edgeStyle=orthogonalEdgeStyle;rounded=0;html=1;entryX=0.867;entryY=0;labelBackgroundColor=#ffffff;startArrow=classic;startFill=1;startSize=4;endArrow=classic;endFill=1;endSize=4;jettySize=auto;orthogonalLoop=1;strokeColor=#EEC11B;strokeWidth=2;fontSize=14;fontColor=#4277BB;entryDx=0;entryDy=0;entryPerimeter=0;exitX=1;exitY=0.5;exitDx=0;exitDy=0;" parent="2" source="70" target="55" edge="1">
          <mxGeometry relative="1" as="geometry">
            <mxPoint x="830.0000000000002" y="360" as="targetPoint" />
          </mxGeometry>
        </mxCell>
        <mxCell id="90" style="edgeStyle=orthogonalEdgeStyle;rounded=0;html=1;entryX=0.144;entryY=-0.016;labelBackgroundColor=#ffffff;startArrow=classic;startFill=1;startSize=4;endArrow=classic;endFill=1;endSize=4;jettySize=auto;orthogonalLoop=1;strokeColor=#EEC11B;strokeWidth=2;fontSize=14;fontColor=#4277BB;entryDx=0;entryDy=0;entryPerimeter=0;" parent="2" source="65" target="55" edge="1">
          <mxGeometry relative="1" as="geometry">
            <mxPoint x="469" y="360" as="targetPoint" />
          </mxGeometry>
        </mxCell>
        <mxCell id="BpT26VlfYUc4pVUIWCvp-99" value="" style="shape=image;verticalLabelPosition=bottom;labelBackgroundColor=#ffffff;verticalAlign=top;aspect=fixed;imageAspect=0;image=data:image/png,iVBORw0KGgoAAAANSUhEUgAAAgIAAAGBCAMAAAAjVykVAAAABGdBTUEAALGPC/xhBQAAAAFzUkdCAK7OHOkAAAAJcEhZcwAAEnQAABJ0Ad5mH3gAAAMAUExURf///7rlxOpzc/JfX7O+4oyh6ZDjpcnJybznxpTnqcjIyLvmxd7kj8rKyvv7+7TevvPz85+foK+63JLmp+7u7q232rK94rjiwo/jpb29vbbfwIziosHBwd7e3sTFxICV3KjRs8HM8v7+/qenp+ZwcOvr64nVnN5ubvj//p3KqJblq8bGxoTXmbm5uJLUo/j3+NDQ0IDFktJpaeTTnnuNzKTQr6/XuXauhMv73JTpqra3toHOlbG94P2lpJmYl4zZoIbSmvG5oYqf59n/8ne5h4ab4YWY2ZnxsKWkoqysrM/Vhrf/zoGGj/lgYdbW1rGzsry8vOdbW3uTgJmlzMC/wNrZ2fH+9+9dXe/0mwQEBJvnrrK3eaiy0pet98Pvzubm5uHi4aKz7r/qyrnE6v/+3qCcn/z//4+QftrLmCgxFIrKmuLSnXKBtIveoRcbFsnHxJftrcdiYjE7HvB1drG830xVS8zOzrTpxNL63utaWuPmkv//xMXFyv//1L3T/9Ts/9rds/+SklZeVp32tMbHx8S5i6PKrIac6LVWVZWizObVoImqj/VzdKy78OtsbMfMzLRQSsXLfjxQMI7fo7Bzcl5mYsVWVG2md0FIP/92dv+xsbxfXefx/ycuKH6R0e72/zQ9NNjeinF3eqOrqLq9eWqAZmFzWMj11KCpw/Dv8GdvbWKVZ6P7u/1paY+cyProsd3MmamZmVRwTt9hYd/Om3yBhf6MjIKfhHSNc6DDp3vBizpCJUdfP5q7oE5nRvyDg+v0/0xVNpaftcrO2/8AAJS3mpCRjmI/K9VcXHVFM8y9vbqIf9TT09WxsaBSSJCl8dPb2o2Wp4iBWailcU88JYSOnJCulVeDWmJiPXNxSt5WVWx6pbTYvolHOduol9NSUaLqtenYopWUYv+9vcbV1ZPhqM2/jdKTjHx/de7dpuH+65jEo7zjx/3ErOixmoaQs/I2Nrqrq/YfH2FwjopSROL/+sXb2//r1aSPbb/FeqnA/9Ld/bG+w8XU/Mvk/7DD8+nR/YcAAHP/SURBVHja7FvNi9rqHn5xIxUSlJmNoC78wMUwKK6mA5PNXdQwol2MhXdzIxdm4SZHDeZ2O55ZuAjHzRWSihCyKUp3l8zGhbtI5qThLLKd4cJdjBwuBwr5A+7vTWxvx04P5Y7V0ubR5jXvR2Lf5/l9pRahAAECBAgQIECAAAE+oFBM1QuktVJV0tLVlBVdjdEcOdaT/lmynv6yK9bvn6dzhuW1571GsN/fIBiM8TiDEAstf45QnLSGP1bniwjlcM/XAz/+MglU1LWODGa9tosvUaFMrc/nGC6gYZcY4lqMxzWk4UxmjMvIwAyrYl8Dh7iLkLg6aeDhl1wvncN4cr9riXP+B2gMbK0vkPmAhZ1CHSNkAdWEiAZWUQ/TaLIyeAODNmI47k18jhlfF121x6AMOHV6OqVRratOOcT2DFl/rykMhs4MK7KBCoYsx8D6p/J0gs57S8TymMyLyao+QTQjqwYIBHcP6z0R5XoZVIbrVLwBPRpwsx1EiZsv8Gqal+FszKfHhH0VewT0MD8G9+BF8LSBz/zAofZAMQw4dxYvkY7VIZx2MS/7ziKFDaIVFY/lTFrGsqylx1hVsQaCGsMyHvQzxHIPT+HycncIR7VbNLAIKxkkwzIGuro9uHaAraCIwSg53M0BJaAH1ZNEmudpwvpYrmGmy6cPY7Ew8EJCdhXGo7gC6ypI5QsWlqN1LIN2Vr4e1iB+CFPGBSIX4jjg6oiGORO4RYPcroaHdBhrZ9jzG2XiNLqgOQYXEc9PSM80HQfNBNgKvFQthg0RnxNutCRQiw5IDkASwSGYJXDOY+gde7KY4ipMOyTeIwwUapjn8bi6TwTkKYDBtQnEFstLIFQvyidACBxMSMAtMrA0Dc4FYznXw6QCSQ9J6jBWyaULnGf7sj8ekLMdaGDbSR7nGKCWG+Mki1NoosIBEAEeRQxEJ5PJ6KowkDGJ9klCrwqWP8SZcooGdsurhI8nmuBpliQQaV71Q0cC6gySaEaA5ii5Rq1MpUFTfqGhIk8haDyGfIP1lHNcFgNqtgUZMxqGje9hQ+fBXKe4UuFXNQADJgskAyuQHoSxHIsxRSggMphk+OeYWGwZ6xzQRUI58rOHWuJsiuu6l0DIuHy2pIegsgpMGOJ96HmegvzhnDtPwlwmteQg+BxYSSyLGvicCqkX0lCccEzwCGFbD4ZUDAl5GCozaOU44RDaGkr7HgJ4aPA+u2VMwNTBxrs8eVikktwA+CUFwJT368ADL7zHcaY3JlGjOMZQY8hQcwz5KFJVEnKgIwo34xsoCfeGdXAFDXIBTATY40kamiPj+wE52wGd47iJV81znLfp0H4Iwvv+w0G/OotyBAW0f8AhaNLsKl+rnoFOcqs1E29FmpvkfAYL4XAUkRuQCd6Nqs+JeRcTZEFaPICudCSxj+iIFbWiH64jpoJM4JsvJHisToJt+JFhdY3g0c0Pj3SwBQECBAgQ4MuLz+gkF2C72N8vfDvBGgrKSYFOB9gqClGukaO/DQ+Q5AqQPdKFAFsFTX72Vf8WHrDk6lFET7hkvbqO33aG6g+Aer3BTehotb5zR5C0otFc0hLDkfsYDFLXb3eF64PBIPK9g6KK1UZu36IKu1VAI5wDAVDwjcIfYzC4vj05ebUrnPxxez2gwt85YM/FaoOjUjv1A/upRqMurvEfDouJ24tXO8XJ1e3lIPzdI0JZ9eRZcZf/CpUoJqviJ19s8Pbq4uTk4mq+I1yR21/dJcTP7x0FjuorILx110NZVavWWKvQXrzY4Jum/6z2TMbrVTHyqQLmF8C/IIR2BEEQ5lcX87vE5/wAZAo/XX8N/AQ50LY1ULQSh/dDwdFG8fr165e/v/icEzijqsWwuKZ8MS5cgQDuk/InZ19JBfMr5e7yQaOkBtdv/4BM5eQr4Pbt1pMQqiiy9/93z182jaOj09e/P+gLGsfVakSMH6wcbkQkHoG6vANfDC5AkCQptHIF+fyKGugTsvnQPQ8BnyXhgzZgmeCNS49TijCfZ+8GD7qAtxcnr/79dfDq5GLrSQgl1o7v8XN6+mZzb4Kjly+PTv/2kAjCZ6mlHp8eVyJFgFiM10AM4rsQKKBkh24cp6/YrkA4XfR9tyDYjlPqLxS3D92EaThk21LIHMGwkDfzguDCMomMuyXhseGgdPhAonJ5ewXmCqEKUoZNvy78JGRAkg14UYQfYhbi1/QMFBUv3/sR1tNWa1Pv1tOnrWc/vwEpHJ2++fsnPyGhDw+GTLE2ZbWEvszoGjvtURSVuoO9l0xTcky3U3JtJdvvhxy3TwiV7Kbrlmwna46Ukl2SSm27pLizUcixJTK6ALfhLVu4Som3lccGg/yvg0+jwB1kKsRNvYck/F/4zDIvCUlBlQy0R1IUlQCzoKjjA08O3h9fGhtFKlb9mJi9vb0nG3r7hydPQQbgDf61lneiSY3tWfWYzi6HmqYtDX0Jf93BIVhySHJvBMcezdqdm5DTmZUWnc4sDxpw7LmkuItRs992wB/cNDud9qK5KNlZQtmiTyTgtokE5q6zyD5SAqHsPxLruz24laBSEUjM8Z1MtpQNkZcfhUisIlHI80+rKYLfIXiLyFTCfr7kDWZXbxjMvk9C5sLd4FJL6WfaccSKTS0xstSPrYQopg5EQEoUEwcblkA59TExTzYOUEGLiKD117VHw2y8x2SMimFMpzWDqRhDFiTwLu/tnRBymk177pq2Axvm2MIM+M3O2oqguI6ysE3H7rg3puLY9kLxYr8wcjwdNJuusnAFZwQB4ZFJYbZdW4sE1FkeMhXwTfZIcW3ITKSRI0h+jGp7wUewO06+P5uRoGT3lZGZX8CJOQPJts0++Z5ZswN+zFRMWKCQnEeBkNNW/hd/hNI7S2PkyrKsLfWu9jzSZYu6Zuiazp7rusZoy7i4SQVcJsq1TyXQ+vnnZw/RCf2tPf/T071Wa6/17MtU8KT15vRN6z/3s8FM6thgE2wtHmcStXgtESuL1ODXf65M0OmbJpHADOwMHD0hVFgssu28vZKAWzLd+cKGuOAZkGS6sI2gFtjdhT1qdpqLR5YO2Ww7sxYJBne/zAXJXSiOKcxGkm1Lo47tJSLge6QS787bTdvOuiBAU1JumqW+k4cJo5HduelnFyReCYtZ382aNyWzpIzsvABjJcFxRsLHAeg3fah3WdlYTmuaUT/sad1KZfqcHerToV4ZhjeqgP+Saz4vbjNnHIc1OHjBheJLQt8uJXEtSPO2a13MvKaxDwa9L61IDC/42LMOeRmPweDjuwovCzUbITdWl73trRntIQoJVCOUU1cRXUQOAoFB+FQaaC8v+A/oM5Kc/ZFNdt/Eu+uSsdYajeTV4PnM9/k+I5+OAK5YjiFJGBewhEpISvbQLtUtp8aPMK4UpEZDtSnE/OQSaP0gBCAE5r/+exyBb/sHfchJ+rCDUjxYXy0+zBAA0d9Zge/KX/EUEPsMATFUyOZm2POCLiPeNgy6F4gKERMzGCY7EAygYObNyl2y0/tUBJ4+OuEF/73FZ2m4STzohh+G/g4JlRnvmge2BBAVwnjl5cwTAYHeTAkDT2CgSdugSi/LPF71RCJuD6HrgSIGoA1CSEjYZYp/2Nfe1l9W95/f2l3f2P3iyfM3a/fvPnm+cffGk35x497+xq1vdg+uLRyBmycQwA3mWFGhWa1KFbskjewmrtgjVMB14rq00ESNSpXVRk6UN6JCpWkXcMm27TMYQMBA5fVxBB4mOckaULCWBt3i2j+fZSFcFHqiKMCwdrtQ5xsX0R2xV+6W4ZwANX4JbN3kExBds48JXfhcGUZK+EQVEN5B4Ia4lQgOmfkE4OPv4fYmSydvOdwMwb7Owm6gEE8AtZjFCiDgB9DxcGeY2oUuKw972348BKXwZkrgbfZYF/TsWAD6cfXaw4f9+1+vffX1b9bXfn7v4Jt7a/fBHPaLt7784kbx4hGQqK6qqq0okU0Up+EoUZUQQ1VNyzVV1XBU6tLvGIXzjpvXiWKNHKZEiU68v9xGkin99jD7uJkiUOzv7v5x7c2bNP96tPZWBeYeigf61EolWX/iw5Jlg978TO/oilHSkF7+qeuL7yJQ/FLkuG0H34mbiggIzDY3mTAL0wWJQGFKuNIFRxr4YBDEIYwzCwXWXRF6ZQgbaf/KYBN2BD/mbgXCmAAhAFyCJ5SPqM/O0z5Y/9X+ehG2VRDKa+tQhYyZL+QU311QXTwCqhWZSG0RW3UirFPHGtmMSoYOIw/thmNSt87qcMY0nBFr2axGqB6pZzkCSA1+8aubJ1Sg+O3jGxuP99dTGSgeInD15RQV+DFRnJ7ow7bSmxGy0yUkCzg9EHwIEaESioE/HAbhyix+2fUFxl1JogIpAzsEQhdEuLC7ychs6O3wmhIeve/O08tcHjoVAcoaqNHSCxKMsk5BFEYVx7KjVqQXSg1DlyK3wipSioDebOhNh7gVfBYCt7Ek1V+fUIH1W399s7/Rz8Lbo/8LBObJHESqclkQhXl6yJ2cIHTL8A6zXVxJdmURCgSot7N8CJaWnxXLQ/jsCkx/iFqieOTGS4AAyjuEuC02Ug1C9EbEdNshlmqqDZ2QqEmY4hZ0pRYpkaGP9HqTVXWmG/jszABLD/7zu+MqcLC/u37weP/uw3dVYOuKyjkQyJYFsoz/yLOLLAzNq1lD79iDjew4+2wvi3nLpQKQ8dWMRqMFRt82GlLLqJSMWglCPc4bRgNXjVYVN3mj3bBL9ijfgmaHYXQmAgij6usTXuCr+/3+jf1b/ZMqUN7a/v5Kyovh1pkIXGxZBgR42MaI5/ywLyV1NRlgpILpk1RJgiQPo+QaCSF15DJmnGeJAKE7P9w8pgL84dBqH/LBaydU4Nne97+/mrLdEa4UgaVQgZ9aUL5aOQ8BtxG63vr18aTw+Hf8FoHyZG/7isreYPzZq8B80Q+m+rGBRe/M6UOzP3cCZ6SGqGT3P4DAoQoI005OzslXsXUmmnBOBBbqQcpLpAK43kJQCrjhWigpyXBDsM+O0gaES9nBvA1GuFZJLy4kW3oi+xcpVtW/n0sFxOkgB6WT63Ry2euyKoPzIlAevnyxwDL3ICtLkRTq/FGvJEWshnEhD7YQ4YJUdx/wYS8lYw0WQKJUSpUBozxcBwKARqwm8QdDUkqHVOLLyaUCfqsgpfo/fnYeFcgQuIpyXgTK7ZcL9SAvcs+WRgUkw6m4OqnZCqlTXTcc3ci7xIi+022XuTVLNSyJEr1FFGpEJqW2TmjFYRQjNNJbEhpBveoi281bxEJUZ4ZFaBZSrt/589/OoQLln4SAnPzJ8sn6xSIgLNiu7LXH5WVRAUCgSWikN3QLObqdj4huKzRvkFqTWBVDV6nTIoZRcdwGdU0rqilGw3GowkefI4ApU5p6K4ooM+D/MNtWovnKUf5O7U8LVgFZi2V5HMtBIKf1tt+OoZ6TT1CyYATECdiVxRW472Z5iVSgruOqjl1qOtSkuqOXbAsmuzliTdPQTepSxzRVl/4hcs0oMhwzT1zq2hgQsE2zxlxSAe2oujq1DCsysW1FmRsABH65YBWQA1+WNW/PjwGBKZnsBWFOGwMJbRmCOx/8jjxoLx6BV9O3HuLoi9+zk/iKXC656yBpOfP19r5L4gXqbNRiyIlM2ED8k4BQVZwaq6q24hKnShynGUEgUCy+Roixq1vcGeSZbkURsZQWIqAWxIpU11LzEAxKKAsEH0Lg41QgRUDmCORkL9jzgmmoyYHnBa+83CSWp77meWN54Sow7ZzWm1iTZRAhfkPeJVnzZW86zzZyHwhTh/ddgozANhq01KQFoyXB1gRFr0ZWVTIsm1YwMixqqC0relCxaIFatFWlCOcj1wDTV6KWFTWiKLIBHhUbLsVGTcpH1vxZ8vULU4EMgcBrhxMAYRyONaJ5Y01px7Hvy+0LUYFTeuMHMu9KyBEIQln24rYGejR+JU+SPnQmufH0Q/ddknUBpBZgkzA4+hJWVZX/XKjAd6gEOxWcvqoirMJ10MiXEVD2OyM4VpNGlzUxrxQkyA4Of4R00SqQm3gxHHpaHPq+Pw7gLfbGE49PxMtRAY5AnCKQa4dTADJgk7bve4Hm7wUxbLHnT+TlVoEFFFQw6qc+N1q8Csh8ru3FcwTkWNE4AoEHbiA3IX4nDMG2wflLVIE5AtAnYBMo8IFJMvbaXtjxtDCQl10FFlLe80uyi1CBtuf58I1nCGjhgDuCHDTGMAYaH4/A9+LLVAF/jsDYgw5Mwgn0JQ4GoEix73WmnvcZqMB7ywV4gU5uoGmTXGeaRtgBH5nphDdC7J20O20QA03rdC5LBfy9HMxzMKS8b2E44Aj48d5gImuKNlFieSCHsfwZqMBHIfBxq4OdQS7LxZKjzjw3k5NqJ6lCanZJKgBz3PMHnTQF4RL0P/auKDSNbA03GVi7BltCHlqLK8vN3Ct7Q7oitLTCtfimcNUMmDvMPnQh0A27D17cJW6FvjT4kIfLzUDtkCJCSB+6G5AlhOzLPiyBkMl00nkQH3RgnD50sRSUbh52fejD/c+ME0ejZjQ2eqnfOXOcc37HGOc735xz5v8VAwrAYIQFOeAITAK5aj0/GT4VmLrajKkeLDpjtypAGueAQgCM1FRBmZirrKg/45xmBKBJMOAn4+rwH4sTwELYjzMiMDIeh4wRjIiR/wcqMPXF3fuNuPtSPZlTL581Gm4tfNHGoj+saxUwftIGc4+gtQrA2SdRrnFOEyKl5RjxVv8cOWQqMPX3W19daPiWsgtf3VfO9NTLN42Gv1z417PfkOXq980Wxfrm+6keVIAhGj+1c0M8LhtVgXgrEHGCINCDVlU2QmnU2oiWBw6ZCnx0+dabZty6/AgY8NvF+82G+89uXEW68exNK9xXCdKlCjAyMSCI9IoxFWDEfv9dfJhU4NHNiwt3G7EwdvObqY+nrl9eOGG5cuMOnN2bC8/utsLCjUe3u1SBcUeUZg4GA1qI4obuFKYYJtohdZu1vzskKjB1/dMrYxNjekyMXfv0m6nbH12/CZaJMZTGJmrp8md/A9bcuHLx4kSt/ThDw7XP7tzuVgVwV2plMKBXUi5DFOj7W4w6hsl3EFFg4mIjJq4ABT6+ev3mWLMFTjJQ4M6Na80G5TBEkK5VAD7gaDQ1kBStRfac6jXkgLfYHq72uY1Biyj6oCmg8yDGcceggBt1Isc7wdE+t2nFx0cq0BRNhPcB2rc44EZ9OA2FktTfYofUMteLFnl8pAJN0UT/OTs0t1z8139UDKaH3xlWgX68Q917HR+pQFM00c99cMl8mFHO2X8rf166dOlzY+mnksGxwPaTPruPjsYCTdFEP6vxXWco4OGJCMNsvFT+0zh+qrgMUcARf/LQ+JeJnZof/koejFRAvy4gBjJ9QCAgR78bd5S85WYUi+U28FaShiaF2yLWl/eoARMZfKQCfY8jIONyCj7TUsXbiHI1XyiW0U653GTyVopJo/cI+nkbgxwmD+JhUIG+UYBZgRc7SYF8tVzMlnm+CFTokQJt/AUyrX3XNadiI7enRipwDhTwlvJZb6GU5fPAgt5VoFVQAycRKCoAUwoxoDzCRksZiVGdhwOtfYhHFDjVa6ixf+k6WofQobYUKJcLVaBBMd/7haCVCgRolpaYzAETIAn5IMCwMjzKAVnO0FyGg1ZGDBAEExflEQW6VwHoR3VfmwBZ99tnaCHQ9YWgms3z5V3emy9k+6oCLIN6PMsKYo7LMcK3kpxDrqwsTXMBjiEljmXonCSw0knvwREFTlGBgMRKKFgMBQeR0KeUWB2oBnK0xGUwpZ04ES3Q/kKQ5b3eYsVbyVYrfVQBgiUUHmAszQYESeQCYo4gcqQM4hDgZCEnsZzAZehcC8+xEQU6q0CAycFZJrgcF+fYnMx9LQg5VoYqCR+uRHDQrVjgCNskCG0p4C0fXxG8fVUBOpMhlVgWDiggswGRJeVcQEZ1VpZYUSYQk4ESIxXoUgVQrAgJSoCxQo6ROIENcCymVDmggJSTvoZ2IsfJRilQP+P9HQvkJA6En+MYpAJETqJBF1AciZwTJU4GlsJDhpFGFOhBBX4RMwTHZViJlQWgQIaDIbZSpZFzPk0z0PdE4EW3FPCW+6gCJCYLNIHRQlxkMBjzMYLMxLG4QJMkLRM0JgpCXJYxAho6XghMIxVoNRbIQdfKsaycAwow0NkkxV9bZAUJqhyMv0SQBSMUyNZWhGBDq4F8pXF9qD0FTLNR3beEtlwXQPHmJKlsile7MnRR6xipWtTmjhTwmUcqcHJGQGIMjWJCRFImRJmUGVkkURWTZULGZFqOwxEyTZCnUaDMf1sq8zARKBaqXh5Gg7v5Il8olY1QwJp04bh+dbCV96kGbVdtJLUmxZtYbW46UqUA7nCt+M0jFTgZR6B4Y8fRpsTiY7UYEVQlUZxIbfUtfjoFstlqMc9Dyu5W81X0WNrVTws6UOABr5OBg/46uMZFmcbVP5ucS4xUoFUcQc0lH1O/sIE8jhZR+1A9hOQUChR3s3kQgEJ1NwtlOctnQRSyJUMUSPyeOnbvGncxzPa2uH1wYoNCX6LGepNab5VkIYWrIuCxjVSgy2iibhaIy1nU+wu/gBJU+WLeW+ALhWKpUDB0IUhY+VTdsSzab79Vh8KAVDZkN33QKoD3M5qoRgFepwLVYrlUzWZ3+VIhW4HRQAkkIau/V9SBAiZ7KBkFDmg3k6OpVDTFKF6nTL2obXVTvdIxu5APoSslTFoTH/CMIFGjAI7iNOJnByHSoK4OvljRASqFQh5Jv1pHSwN6cynVdn6eCE8n4VQhH1Pk3+rqK9DLAgM87nMVgSGjgGmVP1C7mINhxG3izEmkBRdQIMoXARUlqwWv7uqhmUvJlHbf3ndiiWZmzp9MqSR4D3BFV15Pus91JDBsFDCvbtWG3A640DIphlG23kELqEfjrihvGNXkiksdmbuSoZMfmH0utJWsI9omo6KxKRrVnh7VbE1FKplc9Dw9bwYMmwok3El1yA0X2n7E6kCHxRVCpRqBTG0R1YYCSWurTyzs9vvubXnUVMv1PSXLSY8CfevRkfZEzdRcbHkm/aE5+zkzYOgoENZm3njDhTba46ZN4XD1RepJq+lzrcVRYwBMzlpelM0z4Tl3qBN+3xPfNbe5j96+C50C96zVnjCZPmwKmOz+45m3EnWjJvw4CKfrrYewlNpPZTPJULufBU0k7Ha7DVJLvCL29l6sNjWuHr19Ze+MmZmE2WT64CmQmNvSrb4MDg5HVLh3+lXZXEvaDipWX+zt7cVfWXRmaEQUUI84PrRWmBuau0fM6ezityuDTvOQUwDNvIEDAyYBjhiwP9fb5Gz1eWlPfGFq/DVBi0aBvsMSdodswQ4stQQttd98CcZMlp3p2LBTwBz2Kxxw6KICz5B6gkNhgNvW2yn59yvT3vYfzbx4bxQILlORyGvnoRP92uvhoeW4iJlBHw5jFtOG+9AMVpNzxzcfi2wElSeA6dAynBQwJax+/v3NvA3Oz1PCfijcqzivPj9JgfenAsG1dHiT8odCk/ecFo8n5oxNesKxQ5/HGpzz+z22+X1qwx3zeWbnp6nlUGg/dGjxTDpjfrfH57QMmgLW1qOthBXNvNGg3aGkM2bDia893RVNJRd97nDPY/PY8/NUgfm19R8nqdBaJLJpX09H1izLIArzj9PpdGiSilBp+xIV2bCnI5HZDYpa3qReO9cpaim4BrbNQ3UWdm9AFPjr9GybKbDZNuv3eZKLuhWYxZ5K3cGLaOGlExZTR9ozFj2+M03Pz1kFlqg0tTS/np75ZJnafExtrKf9zn1qeYNa81GTs9ROKOJzxvY3qc1YZCdoj+y8pqw+6t5aev5xJIHGBXarZ/bCQCjwoz9ka9PRYOY9G/L7n9Yx3VOpO/gH/mjraSf8wO/xtd2Qe842c4aTcq4qYAkuRTb2ncH08ifB9cj6+to/Y4/TOxsU7G16qNnDyGt3JPTlTmQ98tgZ2f8yEdlZTn95GNlZW4JGG6KAzb2fGAwFPp+dtrUdcpsTdlvYGn4XfmeDFAYoRVeleijUrGGr9cHbPXFVecGWyWq1l/ZKD6xWa/h/7Jw/iNtYHseVSocOaZ9BsGiRVMg8LjCYp2oLw6nZRoZBMsEKpNknAhOhxgaBBQupxHRZbkDswiQwXLhggdJdEdhDXEDgU7MKbHXFEXJFAvOKK3xTpLrinuRM/owTe+biv8t9xyNLTz+9Z+t99Hu/92emJ8vq5/XP1x0LPHRphHcSOdaP/QOzYRnNYd+4RTqGZdyy9T5p0ViAeoZbkX4r6sh9Utwq/nTLfnhMEVDDqh3oFMpmGgIhPGjN73hz3HnXmrvLsXe5u1faTi+lW3rIvTodV8M1HMexH/nh2MMjanH6iqv02ZWyXi9QRsc6z5fHP1rh4bDfHzqP+/0nDun3T7hGv62fPKFuYnjQPzkeWo/7D+UTGidQA+U4cvdPKgTU1oGRbgYBDZud3lV63vybzcLXhS45PaQVPBlPTufVQY3AcmplvV6AVeubqO6xXFjKMseHslrylirv8Yc0oFH3Qp0mqId6j9VluTouKwNVpaenwfd+F22mIWBAz2jJaxoSH7w+HT97PecB55eIwHp7BCxfj/WENfshfaOb6phuqzMhT6Hg6SEf1mfODer0OvQ+KFxhQwgI2DS765oZpTX84hX7q/QCl9Mn7rPa7TxpAW1DCGggNDrdNfmBRQjssBf4HC7krr1v4A+cwDoRYAQoFZ1uT/2/F9iQDuWWXexbHzqBtSLAILdVNLuSTKMWfsWqEZhn8LpCYClFHdVeYCaRIsBvkVh2T5Vanf19Pf3QCawXAQ24knFgd6WerK5YFQJH8wyOKAJHyynrkCIwszbgEusF1iq5123ZjSeFLl4gYL0I0F4B5kyjYbekVes/tIbVOed7iwyuIPnf43/cnUk8m6jS9qjbatuNYr/jzBCwbgQ0BC2paRgNs7laPfph/POjuQY/LzC4Qll/Hv9zJqtHZ5NHze2ReVAURZN1wQwB60aA0QSALbXdMRurVY3AAoMfHi2psAqBmUSKQGOb1OmGCkQas3EEagig65T6akWjvRe/zDV4scDg8ioHNBy8mPjL2eS1vkWyFCyiWRewEQSq3qGAwIp1/ffjlzfnGfzxwfjBzaUUlSI4/v76xdSbZ5ObYJuEBI1htgaByhcwq9WdB+OX8y1eLjK4vND4/uwXOpswu6FNIfBRLKhvEJckQL3A3MwA9QJLKi3F4+9nskrPJkv7Mlf8OCl95LXdQ0BDIoRiChASlqLr1AvMN3i5wOAKAuP7s4lnE2EzQgjQewnFy2KwHQgAiOG0u6Jpy0PgziIE7iynLC0d35/J6s7Z5M5mENDqqkcpdjHaEQS0FONq2FoAIsau4ixF7ovxM3eewTfPxs++WU5ZSjn+A55JPJu4ziakKAqmDxR6c2N3AQHRhQKjVR1FSw95lluO6jmCOeePTr8bf3d6tJSy6mmii2nVADG3EVXLCPTScSF9rgB2xG1HIFWwwCDRtXSeW84yrsvNFNYry5Y0VbhtM4XT+8jrlkIpAIoCthkBDdPPh7BS8sur/MtOFk/Gk1f8r3i9AL2jvO5ggLCFtxcB4GABYUdnD5fuDRc1BNy75aP/u8Pd9vUCUwjS1LLQdiKgwRIiuBIAqho+m48AO/jd4PMCjz1u+1cNTSEQlTDdSgRcPU3dUocrGhBN69ccfe74LT5fn7fVq4Y4LqQxgcviLURA0UWo6Cpc0bCntvIxaE2R+V1YO8jxpYJd1d06BBQd0ihAVaHA7KY0ZNm7snYwdFxFVrYMAZfH2AlZWVJg7a4R+tjc1kfc7ycnGREjXGXe7P23twUhdKmraok47Bzuygpi2hg4knspBG6/0aoRoH7JtUKO7bUUWAm7LkohrvfpTp0kWoPpHoQpgud7YVglTi3PTSuJ2FTfHU2FMfyULHpKpBdVFm8LAhiLF3K4cNX7p3HY3ON3ZAVxFRCUkngZBL56/vz5F/R1bbUIpKpTE/AGARGQIBhBMWEFDQHbEoCgCaRNCIMgAhAhq6OJoJpJQkziCRCZCaiG5kHHQaKgAViNjI+CRrUuDSK6AZpAKws1EiDW+1UmQBSElP4KFTpGkbApUXAU0hKFUVUQJcDMAhuB6vpqsgWmAhi10Xl+KU0rGugDBNSd+TsCLiydsAUWInD72sP+VH//dqVLRlTddSoCzhFAyWgQk27ihMRk/WjQMrxOwpPc6yJbAk12FBSAJyZANskKioARuc3Cw6ofscAgjmgWRcMnqUnaANikiULSSCkvxVMggi4xxOYA2TL0POw2vIISZ+VuYjj9VjtHNFutKoh2H2DgDUJBIjbqGp7RRJYpJQPBJibSiQFcevkgx2nlPKD4PgK78XcEYWmpqrYQgS/7j+/d6P90r39jpQiUh8qUgLdeICkYKTd8Po8NyY9biT/q+LaXRcFg5DHDIvGJmieZ0Q4i36gQSEp/mCVdP++SPMr1LPAKP0mNOAgbwZCUeRJ71IEUERBRL/cNLwFxZzQcJqGfFamIGrnWTIqAjAorptlWBbWgA8mwy7RoQsfrJ51YISPJ7zVpflaVH/GJAuP2Gzcg7pgXqBko29ZCBL6gj//XJ3+9/fCnb3+7OgSw5Dj69GO9h0A7xkO+MWqn+YCJPEZLmrQhSAgpmMg0E4YERZQk3rQhMJIwB1KO8zINRl7WySXGjcuU5H5naDKMR22HtKaLSEPIyAPi5kak+oRkduwwEAreU+TmmZ1nSmWa1AWNfJPp5QWJi5yQhGFIMtSFqD00GKYIiuRpNzEwjCmAO+oFWFYvQ1tcjMC9218f/+VfJ6tEQFBD580/v3qvIZAzIsYDbPi93HMiTwBRk0SDzCSRHDQbcegFRuGMhmFeIxCFOWznblyEWVJ0lFgWnExv+Y2smSQDuREUHp9SL5Crcph5EQXIN9yAFK0wdgBFoBgCIYm1JGeMwPCUES3IcFnX1knkZUaByUgAZX+kiXmb5ieZfuGxsJV5KO7srhdgeb2UJG0BAl8d/+32tedf/ub4xu3VIaBIjnX+v/DehYOUABzpJEhg4XvEQOCx3YiDEZCyLLadOC5HWe4qeZaZ1MObIz2CUpR6viHFgSFGA6QMdTfKYsPJ/QSSLC9pBNgMsqDhZXkiDPxQaNBgz3nq0OAf9HL4X/auJ7RtZI2/nBISp+uAIWxJQ2jIKYQEDOGRQ8+1DutuSUBFYBuT5UkYvCBIDsoWlhLloByKDAu5GCxIG3yyD4Y0mC4I2svj7WUGwswjFw3BrCA8+t5hiW/vG8l2/C/uxlt1a9jPtSzNfN8305nf/OYbeSLfiz36W+zRvSS4TcIE8moJVnyvFHsu+Vr9ufiPX1ehTl+vRl4/afjLbcVV+/ukvRa+YYHpEWOB8d213VjqIyuCr95fTYwlLtbX12cDg8Dqk91v1sbbIMB3jCWTSX9RmCoWYWmWbKzHUjxISy4lw5AeTiUjfFOJ3/w8G67BbCnl6yaXipEkWERSS56uvyqEC8j/5hWPCpKpyJK/Fiy+jq96++yaqlAQ37eWioS9BG+pWCxyp+Fi019q6eHMr80VQaQNAqPzl8W7a1/H730kHMzvTPz9EIKB+2OBhYNbK81nIN6wAG9vaNRiJFLk57xv+NFP5EfoDq9L/CSeyRP455KX7Rn7ub6LYsOr5+Ve/GcgBV/TvwGwFg/zMiJ+Tze8eqZ+gldI02mkqVSMb90sCEaQBcand6djDwazQPqsUHiRfzM7NTUVFARWNyf/dfNI1AYLNAdWr0T6XEUG6fX1xm8M3GTAWTjcrdXo1w6tnoLCxbZiRi4W4FXdXdl4OBACYyeHz57tJMbGgrs7mNpYW5tuh0ByVCU1PnIsADSw/zg1EAKJV9k3b/OF9eBuED+c/7r9Odpz8f0HqT9BPkWhW7HF278jmL7834ffvjwITMJMsDl4UXh0nkhf/PQ2ERgEwhuTbSQwPh+PbY7/Obss9+/+r/1qfDL2aGPyVhYYv+TbR79AGph+srg6iAVmJy5OTxcSXwU2ETx8sLG72waB/SeLj2dGVL6LNR5c3csC0y9/+fDu3Yd/vvwCMTA/szVwInjLvyA4TQQXC+yv7Hbs2ZxfiS2OqMSbj9XuwwIvLwEC336BwcD49PLi5qCJIF14sb7+JhtcLBBe2eyEwPjy/NzmSMpc62eF+sQCk5e/vHv3JZIAEG88NuCJY+n1/MH9i6vCYWCxwFJ8uWfj9g+jLsAC3/7WnXj54d+XwRY7bES4MrM0KBzMn6YBB+8DY4Gt2H7302KXfxx9+U+5N61SCbjQ74f7K4jJze+2Bm0ZeXp2cjLxdD2wWGA6Ntn1Gz5zxt7zkZft7T5pAZe5J64MB4H5mfEBEJhKvCkUXl8Fdmvo4WZ8sgsBgrj3lwwnwsYwPLA8/3hl0IrgdfZFtnAU2PbR1Y2NTgi8/K8l/iVDiiXND4EB/tNEA/cLvF84usifBxUOhuOdEJj+QRc0LQTiH9tF7JfYm2KJPUm9ot31pf0h69brE7gYUDUBrwwFgcXYvUErgrOzo9n8YYAQ2O+cByTBbyJT6OxJTUCCJplaV/dbWOjuXun4IxiwXJirt3//m7+2n7tWu/X23V3A2V7Gd+Hs3d1Ff5feq1E1S8Dx4SDweNDvERydLuQL+YupgCBQjK10QmCzAQGRUG/U8272jiJTBLEKic2kkFbHomYqkj8QNF8XPnNEDIUaat54C9148VqqXNoeQkqy39CVoax92XO8/51Qer79KaVRtSEhMDkXexy+BQJj6ZPE/dnZnZ2DsdngILDcDwKaoKiWZplC3dJCcBQ0ESuCgE1NtOpmKGRCumXbgmVimDhMU9MEQaj7XW5z8IRADezhxLRE61gQQ4IFCl5L1Qy3dGdxo7pXM0sexrohjnzMO6sWHd7FLVXT/hAEZm6DwMT64eH5Icj5elDhYOQWCIgsl2NiXa2qqqTl1KrCRKxaKMs/VLVuVqs5AStKtW4rdY0qCtEYKNm8JXwIiFRVkVVloqQIUq4KJ6RatS3eUkKtXIlmoneUsqyboaZ19O72XDLlGoeAVZMrmWF99JFKo2oBQIB/QfCMf0fw7CDxeSEAbM6QLR4rOESqVpVqSIEeFyyVCQqy6lYIM5WKNglpkmIypV5XGM5KkCc2IaCZmCoWyomUWCrBJGsSte7PMUKtkukSx3Vdp3FuGJl+0mrnWrmRAn3Y46bD1ulRaEEg08qC4jpKNFoVufHqDKpYW9UCYIH7C2eFw4WDs8Lb9OeFAIxdDHN/XanDmQlDWFAkgIBWZViBiF9k1ZxCeLgg1hWT2KJoU6Zaot/5/KgJBFRMMKtiSbFztl0Hba0Fga5xpGMJ64Z3atRko3vwtg81YIGGdabLS8ap4Q5bvXwrC7RMeXHyjVXGkbHeaWToWHc9zZrRWadMV9UCgMDU2NVC/iyRTudPPzMLiFSpVrPMBAggVfDovO5D4DgrQU9CWEgIsICoHSsmUrWQirAqaLkmBESIHCxuTdSqVVewaAk+PriYPRBwGKlSDEwQdR0XYTcKA68TA5leCLiMgbbj2Rg8ydEJ4U4cGMiGE3UcLPsX/H0bBKC4EmMlUOCuok6NUFLzvRoGp6aoQQhh4NaVdNcwHKPhk7vMdFYtEAhMpY8K789+yh583lhAM7NI04gqKTlbYVpVtWHM4yzWgOkJjOljqhLVFlE2J9Wzx0IVxGIcIT4EFNsmkmrbWSziZzD2qWKrTPQXCh3juNXFbo0YgINreEsIYywRZLT3f/tQa1gbGUJdTAmuUELLhocJ6joyojUdIYYBITQjQRYjWKbUG+h9IOB4EJAIg6Ix4IAyt5xh/mUGUd0xKrQmE51RRiUm15hXAEW67zJwFpiYSC8cZbP586vZzwwBxuN8JqkUSaJVJQxrmsVMjR1rGkbMCjFW50dkWkwQBQQHuNawxMNBzKALQsdIwmALDOCb+Jn9IQBkS2RDRzndvjYYoQ6lbaTrj7VMFwu4GKEaozrEGdAjnKmjMgxgBKMY29BJNVqDLElnNrIR0W9jAYAABwutYBtVdSdD9ApMKLwmzABs2QZAQHcotgFq1wyzawqpjMjM1ltTQbAQGEsnFhau3l4kpu4AgROuPZU+OTkZOhzk07YmHmfr0IEWLAf4AIY0ngwsD1kQEPBTL4lfhbxr/76i6KvAJ7btUMMk1LppaPZCADi8LFNk6zWEUY7IZYbkDgC02llrQYAQmzFcogiVMPVoueJiQii6ZsgxEMEGDNxSCRGGahi68RYIUFxCqMKYp+dECS65Zb8m1+CLVYwylSsEU9lF1zKhsu0V4FaaLgOeCCYmEgsvjo6Osv6GgS4IJE4SJyeJXgikDw/SE1OJ+09fnSfSQy4KG3cIKb8baFHpd9zy7XsbmFGh11ToC4FKzWY2xrwLr5GE7BYNZPxD10Tg6DZGhL9g0rCxTmHyB3JGDDj6GjlRyZbLkAXeCMI18OzeAoFrYAlJAsSAXjRjABlQTHhNKCAISUYUJhyCakTmcwTQDaJAPsjVPZd+3QKFAESC+Rc7O9nC0/+zdz2hbWNpHENFzXqN2YGuiCity1x6jyNKWeYgsNnJpYO3F5GVIK/sjoWNAqYa9rC0ICYK2PSQg0GHkauycVx8GHww2D4IloLnKjYGX6TL5pCTYA66TPOn3e/JdhpLnjpR4tnS+Eek6N97fvb76Xu/7+l7T8hPAVQfSHCyW/dTgF9h5XqUpzWWZRv8ZSgwNAZn7t+Lc2Ba0ikUWM6BlgcVsPnL/sHmZq7f31sbS0afFRinLm2uLTeh5uB6XHcHfTiU29/P5X7ZgxyWodloNfs5uJVb/T18R3uJplAgD+fXSrDkYcFeBpQi75Vk76AJC3xwf6/fOug3S2ub+YODVm4ff8B/cZbLvqLNhwK02EWOow8Q6R9KwtdYvSLrbLbuo0C9zYLNqEtszZDYLn8ZCswHUxoCuP1a4OO1mqVSrtWE06XW6TXD9jbvswLYyW+WQPXlN0E5NvPYJ8iXlnM5yMnLCtbLzVapBAu49vkJCmyeoQCcbzXh83KtEq5Q2IVkkHy51IS88liF4KPLkF2+hbGMP6C17GWZnzRQc2kIqI7iOKSRjPhHE/EG23YAw7jCMxSI1bOswdcVVnLIrkeQT40CU7qG8nn8szab8NfEPzP8+7X+l9VR1xCu6Fwu12zhlbfnZeAt3g6+ZHjE+zdMdLA2osCHfL0EH65pjjJpnh7yCtMaFtHb9T5gnOV8u4awHKSVlWRSMmzK1xDUs5pjJyjK9uYfmWgIDLb2AOmsQSKDzX6CVmB1M9fMhcDayAqcSX1wujonxhQIVYCZRZtLQ0AOJ5oxPD04YQUGbPcBz/+j5/UZTMjBmMrqIlshyXqHxUGHnx4FDsL8zJvDx9KvNj9UYHO4ce76BCOAKfD77SvmwLho87ECipJUlC5t0H45GNPFzmDQEWUnMkmBWCQpi1qDhu3kAAcdfmoUeLW9sxkC/Z3RE9lQqYdY62/jTC6TxUeLNg8KRPm2JHUo0iF9g8sRsiuaKGo1bzKyCSsQoZCdtBEPdU9SF6fA9qt5U2B1eycE3q6OAjO23+6Exdvt1ctm8ZGivdrenwMF6jURfEIJxSKBweWOQyuKTdmesZjoGuLbuqipRj0aiXjJLkKB239eW301Z6yubofA6rhcoVKPM7l8Fr9etNWd/W+uXgsktAFyklrP95io3tGGkOxIzK8FwCUQNVZky/UQHcR3vu7vrC4QCjt7X92+efX9AppR51EgdhD1OhWx1ulIarCDmKdZlS6Liiom0IUpcPP7h3/r99cWCIH+3reP7ty8+g5iWWzUdI32xQ5GovW2yjtI0ekgBcqsgdoibbBD4lyMAlCer376doEw+Onrpd9dPQWiJBBATpL+J4URNBB7PF/TqAAFoB1Q+LJoK6EoAAV69OUfFgiBLx8tfX/z6ikQA4+wq3TtYLwAkkVdF7PRSMAKGGz2AVBAZpUQDQEeXn57aWnp8ZllgfPhTrgZLGZoAW8OYlZLBgPHwA5Uaorn9fnkIKl2HpRBDtacSCgKjN6oBd9nY4FzID5+BVnYkcUzuoaMwaCXVadYAV5RNb1BxmJBCthkPSlJWXsUQHJxCnjzn2zcOf7i6dM/LfBxPP3i1j834pd5s9osCvAYU+YXAHdRknR9d0q8AInIQac2oEgyPAXiG8e33j9793yBWXj37tn7W8cb8flRIFurdWQxGEFcb2v1TqWrDR2/iQ5ifkVnATrNR8NSIP74r+9P3r17d/JsgZkAEhyuH4c3BLO0gKRpmp4lA4PL+bKOOhVDswNWAEU1tjYo77JqaArEj9cPT54dHnIcd8jh9Tlwzss+QxweHj475F6HNgSzrABp2zZFBWccQ0mVzopiAwU9ggGbdWwbdViDD0WBePy1ib8UZxJExnLdqkkwUwDn0qcnzJTFTL3qcwcBMDELzL+E5cBMClCJRIKKBIaVRmIOr1SyTtAjwP0CoAOcLtsOSYFjAgwArnfCTAm6LrjABRP2YYW38JeGDa4gpEzvCIBzhczwBMGYJr6SOZPk8wb+nYAExJuwE83M6BqKRfCznljAI0B0u90ulwfktN7BHvICCgahKBBfyoBVN4f8TgkpqN0CZ6agujOZTMFkCmmTqBaqsGExmUy1wJgeBYpwmGBSsJvKEEQVTEcBJ6lmChniswdDQIOQeT0fCuAg4eH7yXxaoOsNNpzyjAAlxd06GIOOSIfSAhs/mhw3+mpAAah+vWLKgiCZVlEVJEnQM4SkF610sZh2BV1Q8e0/pIBZKBZVpqKaTNFNg78imxZcUDCJawBoN1NL8TnIQVKSs0YCeID8D4tJOpmkGzIK9AvEyF4SEtQdhQrTNRR/mPFUwCkFTFOtuEIqJViWUCiIbkZwuYKl6pwlAAUKePeUAmnLFdyqkCoIGbnouqJrCVaGIa4FTLP6Jj4PK9DxXAK5g4NEJ3sHnSjlGBodcAqjEdQttzFCWYGNH7dOGTC0AkTRlSWOU2WrSFRhX3dTOsDEFCgynF75QAEX7ESDUxsViSjqqqq6VpExiWsCaBrDhAvMlINwN7d1VpQUHwViKNFLILtnB3sH+QY7RDeEFoh/kzoj4EZaoNoomowA9ZkGCpi6W9GhyocUSJtjCjAclwaLALuWULQ4XeLM6kgiXBMwqX99NwcrYDSgSW0rwcCxhCZqVLs2xSnssmobm4FyGCsQf1QlJiigq1CvVV0v6owrpHHDUATzrupCxmsIMmZR9iggqqpuSVgtcAyoBOCBDiwYOQrXBKn/bFx91FC0JrJyj0IoEgn0DtrSrqFRaJpT6FAeLq4F4htvqme/FO4XgEo0M66b5sD3T1sZwkqZBTdlVTMWg3sDLCz3zKoLSDGulbIITpI470jV6y64NkjftR5ffexgjKcGsqbJ7QTyDyVR0UDqiVNCRgzW4L33HMdiISjw812f0PWUATgJJmPi2x3+gBLccBuvcRcAAee8KznT5Kpy0WPFOMn1aQjuWg/nEEFMDzoVjWXVrm8cASJBJoqiHA1qgYiqK8mVlZUkGSJ28PbPd5lJj/f8vvG48ZAL18j4T1qBOQwliaiaKnV6CuXXAnxPbTQaWZIMaoEeG14OBigQykW+ngwgtuZBAZCDnR6P314eeEkdhcDa22WE/BHEaKUxRC2JLk0BZms2GGKB+VmBKJJEMZtU6WhgignUBt9cY3XvVj9LgUi0zg8RImpokgLMFrH+4sXH/16srxNbi+ofaYF5DC7XlLI+bQJaEH3S7q4kyl4owYQVoLMj0CFiB89SYGv93g/3/z4L918evSAWlmBuWiAmlSm1JwYpAE4hcpCh215w8YRTeFVagFl/fv/+y3/PxMuXP9wbc+A8Dcd8caE27DJgfiMtwMusxopqcA5itNImoyhh0H4tEEM0nrC03BHlEB7BGSvArB89Pzo6uTcbR0dHT5iR3Xjxf8b66RNcc85lMRnmN7ECiUq23S5TVHDGMaprGN22SiuRwGMiLB9tpy12LyMHGeLeycm9Jzf+OAs3bjwBGvyPvCtobSTHwmtQQ8CHQIFs8GVct/0BvWYPPgXSpzo5J4MwTAkG+uJDKMHcBnTw0oS9BAQ6tGeMIGOhQ9+KxBhDI/B50aF88j9Yw/6AJuw+VXmmE9vpOEk7DpvX1eWSShWnuz597+m9JwkfF7zxlz3Lx38eFb/9fz/+tNMv+utX6tupLXBQmuZdunFHsLgrp/2VVUZ8momXxaR9OXwCCxzh0AMA3S+AAkorH7yDCH35uF/5/IV+yH//8ONvn3f8VWsY2A0LVIt5BBs2qas1/Jb29UavVt647mDcuJo8hQWOA0rR1kLRCdDAMc4ZIZc/L25cheE379I7mnzjmdUrivAnMAeOKtupsKfI9ZfryvEz2AKlRq9Xn8n6GguAyheDQWtRrDxwSxH4BQeHw783eK9TpBk8igWOA/QAqSQn794cvSNJJVkKWr+Ct0SL62bljzp/VaGoWckvmwlgiPrCjSZw+3bFpp+dLNsE5JPPaKThNjrsKQKwp/TkaPd+gXKnE3c6G9YgjkuDgeDdi06+hMDtRee4FyHbo8nvjfiRLHD0AVcq20MgwUsIfKtRppTdyCyR/lodGbfSBkdk+1+kgMAJ8gBAO5eT4937BcoXjPNBt7c+j+BssFjEZxsihZ3JckzYrV/kScSPYoF/fMDNh0Hg13shIEXEIop8B6XQ2eFARQGQ4Uu+ZxmepkWt72WUNikNDIG7oTc7iwcq32KjAgIBegZpBifvniFGIBiTfLo+j2AIb384nPXXI4UHh71RLvV5Pc8oeRQL7AACTWapHhCkuAtdJlLHI6qFcGFmsI2U8FTQPHch/NcqkVKdRkrp0H9gmgkDD0ItNsLS+1jg+AQ/AwUU1Lf7GEE8G8XVZar4LUVQG/Q575pNuYO1hQ8V12bVTvWw9HJYIGAugb/w0qUVzJ5zN7bEZedan+po7AzzPV+N04QKZZnS71NtxLVQboxT5iJilOVKcWvRfSywJwgc78g11O1e9thhvG4Ozi+kvNwwj+AgjietVuvyon1xls86fSkskDBHE5ZKTY0xKhQq5Cky/NQhqVNOrcTQJnGM6zEXTFhJkGaWES21dAjltdzJNKi8UBbYUYygO2kNahv2KYzn08lkMp1U1/MFYv6Hh7iYT/RyWMBew8uUJDRKKOjqlEdCEJkF0uYQAKuviWgiU2mJJtAwoWas4IaWloYaOENrQIWgr4kF4qqcLuRoU5jo3/k8AhYfbMgXYH6SyVX7atZ7tF9gFywglZMKcZFJy00IB0uFyE6jZGxTRu25N/xVCjQhuDPaQZnaUwvdnyhQBMvazDD0qmwBUASDdnfQKG9wEI8mvQuxbgsML9ujxXy+mLZnhZp4KSyQ+BeOA2KESyJH80MLlWWB0i5CWoEioE4Yi4kSUaBTKBNHEqJIkII5iKE2sXA/aL4iFujUmLm4atXXzUG414mHow3zCDrT7qRcrZbqV71qqfyCWCAIgiTAcEKYJEkAZYRxkmCMEXwEvgoUAfIV8GOCpAlleCBpIhz4irwWFAW0fz22QFw/rNdrrda8tGFmsRDi9/5gZU5hKR4ezHtAGp1h7az3hEjhIyHQbCZ3SoAJwR4FcMbLA0OhkADQAY3yNnmTvBzkD+Di0eUpb3eHNIP/LxaID/tTJgfdrjxYGxF0enIwkKK3kjvYOePVRfVg2Bn93n1SvsDjIHCC9y4nb7eAAM2PW2V/qtCXZgt0pv2GlP3Fxp3LS7153JjMVyFw2Z7+PDxsDdpteVl7NhaoLCHwiQRbCPbq4M8rfKNc1N2880DB5D9vj+6DAM3SkEQUCV1Ewqg2eS2LTHALG3TvLNCZ9WPJB/Vef7bOApN+vdFvi5W1hg5q/e4F67b7F6PHTSV5Egsc//pp7/L2h/sh4Bh1Y2QlWA4UzAvsYJCB9bmzElOoqhTGRoBIsG9bABTBoDtlMPZbZ4Fha/Azk7NVc7BU6sl2u817nbi2XJji+VgAaODXt/uWH3zQ+h5FgJlW721qNGOKChilskQ49V5ZFkCV0RzZ9FqlhqV7HxHEE9aKD2bT2WRTyohsj87WVh+t1mqjq1wNzIdx+XuxAKV0CxZ4c3R0/MO+5fjofghQo+CPyHgWMAcocEwoqhkBCPAUsUxYMybcSYeTffsFqtVFfMbF5WJtAVoYFLYGrcVotuogLlcP57XG1PTbbTaPvw8LgJbkjqI8wOfB4KN8zt6CRQGBN0f/+nHfknfHb0OgSd2pIZJppqlI4Z9mx9IUECDMhkZlzCgmEKCjuW8WKJfiqy6MCERn3TVUXSxq89J6jMDvQzGfVxtnvDv5TiMCqlLNLIos1ZnLHHURCSJNXLbGAj/+8tOeJc8dvHdEQMYZ5RyxVEvHstBJwjIiiT7XXBGZkdNUv88Ca8ea7j1GUO1f9mSvP1kfEXjKLxV7TqwmjuUoqNXqje9kC1AVhakyhjtuBoJZJziRTgiW0RUIoC+f9yu//eJzB++FACAYAYItZykWllqBrdGCJEZpzhTGqYYjEEwF+48RNPq9iYwHm3YuL5fL5Tv3LAYUHNaqpe/FAgABLq4zYQKhTeTEOVGZ0ZmhKyOCG7mDe5I8d/B+COSuKO9nCgjGSbD0TiW+RIpSgJMESs395wsMLv/WF/36w3cuBy1S+m4sALZyxq1RQsPZgAmlDdhM0SoE3hGf4XdHqt3dSXhrt5ZJX9v+hK/STLbzDno/oj/y1w6fcPbu6/yMC2917s58mDm4m3yBg1F93n/OncvvNAcR2EhaEaWjTHF4/S71sZ3mljECivHmjPQKRWStp8E3U5J8bQ7FCtpujPpAB/H6V6Mb/4TkBeQLHJTqvd5k1NsQKdwNBDayQE6bBHqJD+DgJPfsB4Vbf0sI0NSPwP9wzebuWbqEBAHlm48zAA1Fi9xtJzjo5qIp9QFDGqqIovwZWjR6LfkC+X4E3U37ETwjCzQDXERrMC6YsgjieNkuUgg0QgiLKIFOiqgGM5sQSxDCBIXGIJ0QX0eJbVKKLSFZkEqtMww1GGmNwpQR7DTcCygOLBAKVL6WfAG/H8HsSjbi52cB8pV5w7zLJgmiiXcLwGe+FP8NGr0HAhxURiacCC1HSnj3C4fxxbWJKE2lpZhxJqjjQiSWcRVJzceZkqB7eKoFN1ScGnvuCGM8UIxLkjJBXkvuYMnPCtk0j2D3LPAnBHyar4+oUJSQ0EJfDvX/2DuD1zhyLA5jqJAwZhkoUBvMELuYy0LYm8lhKebQUM0EBBnGc1kQgbGYQ8DkYErnBTEkmL0ZBDps2kYwi9Chb0UITSAIstdFB/mS/AmBHHxcht0nVdnutt1225OutpOou4tySdVVbj399FT16VUVpLgzosYXdATMJ4njnoMJOOnxlpUuwyLh0JZTNVQp01CEBagIBpqISO0F1UxLC46CxkPieUKFj8AhLDgWJmAEnwc7uPAb51w2E0TnpALUDy2os9WZYqSqnAyjwdSRLMj0dCogqizD3AcVUBJq0TKbE1aJBCqSauk4dP5CmnBdjuQ0mAAHE3CsLKEPMUMdTQALl1XGVNRUiWH6s/EF/sUY25On5xG0qQJ+qCySXDqxhblRjyvBiRDMsuNrQxeYgJPWMgfGo6RjVmsC7Zuqxy7JqXawJeQ5EH2bcqMtmAAGE5CaVVoLY7cs7J9wrLhmWAQpsFpi+rn4AiFozMbe/pxVIJiAVtAOs0qEO628GpqhgbHhdCpQlp5LqYlixqQeLCc1Ogm8KHgVlnNHJGe+1JyZUgumkCFOJdoQyxnWYHSuhFZfeWSYSpWn2IE0nH2oRgW2UTl7G+ikaNCGL/Bq/82bF0/25+oLeJmWZMcqUbFSCS8JZtCavYY6m9IXgLED1L9KaiIkXoJJiFBlKA5/QINP4hAjj6MMGH3CAAS+M9KGkEHiWriMFy7fwVoAzNLJKvBsAHt0Zi8CZDxIY3eGg0K+vDBPFXA7jFuusdHSVIYwcMdCiyXQYE+xg50JT/EipHk3BGBKnSLg0+Vp2FzpY2KQ1Jdn02OysCYGjwjCmAMrZz8wLM4p7K2H/JnOLAYNIIO1ogUVWF19+vTd0rt5+gI50tB710mPLFD4nDCByUxf3H10Q6zQJg+dt+Pl2cFuMVgnM6cUyfqJGI2zmlP4294ev39nniqQpLGu6mtCozWTHqvxFOzg4ZWlY8wPTcqaBj+ckCI7CO0RbCCdaQIN+NAvWog7+Eg84c/35MbGHFUgASGPD62M91PqxRG0PXazuOgPtuecIjsIMrAy61MZDNb6RbeFuINfP3/1VJ41p7DVq4NTs4Mr/bWrvdb6H+vVq+sFbGDGHGN/5YQFzIwXePkSTOAf8xwRTE0Qx9Z3ReLv46GDTfi7ZzPGGIuieNZK3MEN9mL1yd7eu8UboQLXgB38TxMvrTVOcfaxhpbfL3G+urR0I1Sg+/N//zznVMcd7P5vt4Vj7WatxB3cD08jfHEFaqhVFRhhB3d3X7++wvsjoYO7f6e97q3i5+yfo+dxvDjxbhZnZ53edfxsd1//TooW7hHISXEHr6MKFCjJ5s8OBny0bINhpGUr9wjur66uvpGrGzdBBWp28Gxn4WKeMEk+wiXdo5nFJ87j3K/uXOc7hXcW4lOG5ssL/PH4Ap06itwpbHAsfNwJtpDSK1XN6TuFnTgXqjOh7vMJmfWkmc7J8mP/Rd4KL7AYbxafEXfwuqrAhEl8WDl6GifDtByZ5DU2bYMSPVofnYmWc/JETpkA1YybCcEriQ13Kk9HsaOJ4ux0BtVjW3LUVtxBJl6+X7rRKkDtsGI+C/N4EwQVWiJK05RaSwIiCu88QcgTWhJoeajm1pn0MaZwFmav6SyGqsxC5MlMu4xmdGoVoJ4hrjL47gQOCrULB6E1HU6VTaS3OqDCZSdBORRBJQ3ArHY7TpO4OVCs4SQpyhMxaqd5O7zAowAMvHn3aPEmqwA0tcwoLXhFGGdEM+Y0M5p5/1igivG0YqZiKBYQoe1RLInWqTKEVMajobRYVdZUOcXCii1vjafTUkPUMSdsKpgAYxDhICaB45VRHxCSnlKFf8eV50JaqjjXjgtHLUsVzrxSgjOUGi4I7ESVoS2rwJ2Np3xPyr/VzsBNVgHJgx4PMUfwm3rNFdPUKMKRg59aGZEQBgXUUEkXwjxwlSAqhGJ+iHccE3ooLKmGHjZYJa1kfnoVcEMBxbUNc+BQypRmilXhBhfFLE/8Fs5AoQSuRGJEJS3DihFEPYf6zsB6cBICo1nph5YkmLXuC9x5/pxz/kT+uNG+ClwGvEnR9rkmwDzXEmPvBDRKRhJmYYNSmkOzDhPVKkqYk5X3BNosqIAQMOSSINOKJbCvT2IDDXRplimeOW7SqVUgUKtScz70BKpyRwgeUCTob7KKRfO0XFNmhc8qAT+2QnC4lBpDnXCMBKzRSDDbtALB8DJt2xe4/+Tlxvv3e/sbS4vtqkC4919egqEig965JlAaI4x3WnpWGaO488wrg2QFrS4AgYEZjQWwEDTUC1YY9mBYppDNoWdOpGEgC9j6He/Ulr6EL5BiUB0kMSFMcYw00nonGJpnCSFgmlL7oYbOSTqmEBSyZUIZhn5CYi3BKO2OQ0gTwzLMRsjldnyB5R+fLn/97tXq8kJrJtBvTGCdpPn0IrD+oehOHhFo+N0rrURwASqildFaKORc4oW2AqfehZDzRAmPIK9M8sQJA7+50bZKsdUCY02tMBiKOOg4PBTMp1OBDrWSMwsqILBnXFtwr1NVz0PQrIQ/wf9gQmgohRMnoaiAf6MUNsn4VuqGsHNSSU68BC9FqSRv2RdY2FheWlx43yZBvBbvgXaLS/B3JSI2wDoTTaDMw5S0CIvCSAw0GKUwfCtLEJq0XivLJE7iLGG4EOMNliHQYOAFUcgIOGEIQkgCUpinTeGpVCCPdFPE1iL7Ap8yrIT9YagaN2mUhglPAVPUcWJpiH5YeqmgPwisWgl5ZShpbHlOR9CfxTOLF5bicqGtO4V/uuvWmhvuvUEAgy5+sEMnTxuGaiI7mDdTduEXdqSe1p2iw8hi9VpESuvtgSjMY+kjmAgdzmg7/KAJ6GCnMQE47+Nj16EMA+dEDr8hBC+ELG0bVpGUXjVkVDybPBCs3JBS+ZporAMlaovQ8bFOmEC3WDv4ywzAscWRSm3DBO59u9k4A0V/MC1/R7Y/BILmXHZwCkrwMtze5JwIkTdBAi7cl4yyjScLpqQmXicemIxB5MXKJv5mBiYwVpctjAjuPtxseKjuSn+wHlthee47UnRROqaJO4jQH+H1Li4S2cFuc+Jnp3KMZzxj9WgLQaeAx7EIieAAjfcD3927ffNN4Ksf/OZKceuQvRpsr1+UtgdrDUUXhGN9zimyg2CL2y0cq9a+46sCawcPfv0ETOD2N9+/bbyBCGH2L0PRBXZw/nEHu/HEWzhUf8wCQATwT199CiZw76E/7ApCHMGiV/R653+KQ14vxh3szTWtFI0eFb2VS77O3tQ7b59xC9g8+Pbu7U/BBG7/9P3bzd7RP9eFdOucT1iMesXzT4cncuuSr7M3dc/9ohELgG7g3z/8+mmYwL2//gI20Cu+PIx++hQi7x5UD68kAtfQBGBQ8N3bzX6vKLpf6naqVIDrsXlQPbiSJ3AtTQBOCWxgre7mv6SLUnBB1t4e4AdX6waupQnAOT38BYMR/J+9MwaNW0njONvIKy9LChWr2MYYHoi7OBee4OL1RBAJIm4S/IiP4KRIscUWB/M4mWGKeHsdbrYbFdMdj4Ndw81WgsO2pBW4cKq0t1vkijRpkuuO9PeNdjd5SZxnP+fZSZb9KxmPvpn5NNb8ZuYbCMrf/zTTGfRHAOAfT+9dXZ2bHgTgZHjr7u1/P3/+15lO1/Pn//vX07ub59wFvloE5la3Nu/efvr0h5lO19Pbd+/9efncBHytCMzNL2/duvfd3ZlO1Xf3Nq9+BgBfLwKqa6tLS1sznaKlpeW/fQ4AXy0C1er86urq8kxnELyo+bnqlCFQrS7958rOTGdV7cra0nx1mhCorq7sbNy5c+fNmztjvXmXPY9Oa/2R+zeffOCJJZ/Xu99CGzsrS9XpQaC6dHNjfX19Y+P1zY2xXmcHG6dr/VMF7xydrN9nnQ8atNsnN9k5brd3Pvb/YuMLC17XtVvVaUGgunWjt7HRCzFmMaRhSEOX5H4IghtMKYYiV0ASFhfcKxtkfbtHR/ejgqK2KuN5r/gJFYtyPMmrlIYvWVbHP7NggxFOhriwYST0cFQfyv3tlLH6qCPFQ4ock6pzOBIYHlg8dex61OFRry/wD8a93kYv2qxOBwLV5ddhr4cNU9P4EDmW71BtyGzkeE7iJn5g6J7voZglrmVbvmd7hmUHKEqSwCGxE9mO4SaB53i+Sx3fopFpajqPKfyw/AQFSaBFiUU95dYGl4FpGpIkiLrvLIbLZM8nEnu+jZAkwjNUzjRNWicO5pyiJDGRq55v+rZmC4dCFg2JbxnU9gMaqH6jiAZ+4hoILCiC3yfSlH77FDqm0bAXOn94Mh0IHC72QqSZmmHwYZSmjAiHkdTLGeMiZVnkMxhqRogvCGcilT1BAocTIiUhWcTj0CfOkKTMk2ma1im8IgQIaBodMjaMmKrv1XmaSpyBy8BA4IzZDjxoYjECJnGYcxozJg3lmuYpk8qHT7xexrU4TTPXh6VC5ix14m1hpyR3UkIEHqYptz2m+h0mKi0sCdIuVKap43BxsFqdAgSqSz8iXLwvA1aBiMQwDkgyj2bMdl0BU3JI7IAOU5eKbRFYakiZxbnrWDBwgM0YAT/wSSw4cfUJAsgWOXGHPMwzl2Qi33Yy5ngGjKsgNuJcl8QbWQoE8JBT1SISzNZQIjIWGQoBzokvFW9xsi0jf1sGhkegX0lAZWqBr6Fg3CNDlPOI5ZFjjiyGoV2wDKon955MAwKbDkLF6ypWARhhyQzJApzFIcxjmHdaBgMkOcLK6hYIJDDjEI1SGSoEEkCA03AIo8Uzb4KAbmUpJ7ZD6qlQA8m5DS4VbDBsVkBEzyN1sED9EQJZZvGUM8tnFrZh1WCWrhCIJWwFDJoPATUMdGbAnjByNgQEjDBWrmMH3Mk0IQlGYa4suXnhCMALcwbTsArMHV8fT5hiFZgg4NIsxzDbwhSiNLGdyFQhYKGADaGCw9RgwsABAjks9ICAgSWxe15gjDYCiCkFiWwYk4ylESDTsyxaLA4FAp4OoScsBllhUQj06tswtZFPrDrxwiELxRgBD2DLOMUOrsPioVGXxBqDOLC+XZdMw0MWhI4+QsAh0CFaWEzt4mXCq9369v8ReXV1cN00x1CnsBEAAgTiNRfzDGucZSSuc848nzAJkxchmHWEBBAWwN4O882TECBsO3Fq6EEGWX8UC8BEzH2YusCQ2I6xHqswAg4KEwQcDB5g0xlZAAGmTgSjVd+CEEKoXEI1CAdhV0cJSzk3IE9hCyIyIiKBTjkJdMqFFSL1POj3kMHWwlMRpGBx0CUgEF0Xt6YAgaW2E42njCkSTdiwIUPIHel139AtKRJhCekg3ZeJIyByi4T0RUATKW3kSunq6t5NhKbpmpD1kSdfgrREJnUfDpiCGqguRWSAy4I15Qg8CAQP0YsGQsoEasFD6okqob60ha1rhicsFT1Y6nFFvi7rKBIOdAMOD770aQAdMAI4I0AfoJl0lCUxLmMVCK6LzSlAYOsdAhpFGkYRwpqONZNSON1hiqhBVbgIiYHV+KmjuLrFugl5lYNzPSomM2THjuCIDyOKEcWCZ5pR1IJkXKxj7a3FnDQoogRogUwEJSqnm+pxxqgFRmaRL5phXZt0SnWisJho1C1jbJkhcB4ELkBIDF2kTadmCJztNVFsaDMEvgkEzMWL0QSvxUuSOUPgnAgsao8vQi+ujZYYc/Ha40vRNfhNZgicB4HFa3uPHj363VmvX779+fWq+dJUJ+idV48uR63HizMEzoGAGZVfffTdbVX9kx/l/stZv97dWgtgjXnRuqwvk79q3jBnCPx6BBZflhp76++rNeh0j1vws/jbKkzrRXb3qNlqvitp5e1X46L1D9Xaa65ZmumuNfZal6L1Ru3G4gyBcyBwY61WqlRKb69KpdzIWJfsN9T/nFlWabk5SVYOyp3OnjI2KyrZP1bWJiTN95zAVapduemZpqs+n1W6BFVqC2uvgxkCvxoBTSFQK71/NbNOK4/32kfZ7lqc8wfNWpd3mofZUb/T7TMSl9s8O6x186yTDZoPeLy2FvN2s/SBF0DgR3PRWlmolS5FgMCP7qUjUP0AhOqT6reIwIfzqZmzPB0cs06e9km3Q4476QF7ELODwwNyeMTbqoSvML5/TA722QHPO6QzKH80JBMEJm4rJ68G5conl4nKWdaPt5VqXwKB90d8/tny1bkpQKDUzHmaNzqs083a6e5e3uX7rc5RP4t3j9lKt9s64HsrrA0Tv8YP4rST5/04H5ROQUB9Va98EgG1hXLz5MFtNksntPigduXKmKDal0Dg/j9/ePbk4cNnc/cfPnwyP/f97Z9+uv3s/sPvq/dBc9X71Wej/De3CmTdXTbYJ4PBYZ+1++xBnq8cxbv9owwQiI9W9ln/ATtO2/8FBLppf7C724/ZQuUXEWj2s7yz0NxrVEqNRqmigocG5GH49q+sdBaADxVTlMoNiE6LOAOa3Izz1w1FDpSVoahRVKrdVHeNZlGn8X9qrue1beSLry8bY6OqOSlRUyM2bGi/bVr14KEkkO3he7AhOEGkC989aIMghRTqQ0AiZxN00c1BoIvAGGbM+igwGjWSwAf55LNOOuylYDb5I75PstM2zo+GLY3Jk0aaeTMa/5iP3nze+MkdWXeVmVkBrVC33lbb5obW67ZLGlNrNWpL4ma3Wuq1uwOx1Jvb6FaYXns0mS/ukRUgCm56zv6+6x3A3I+ik/2mLu0fuNGJYOyf6GT/QBKasVLsU6G/fxDEBweYv9kKyG7I+ZFAjWLecHN5Q0JK7LIwlDHuxCGMM5IM/VRBgRxLiAuMCHDgSILgCYqHPGguJ5KhlAMX4b4XsErgBSkXDaieJ7oyKytQ21St7VG9Vx/Uu1ZjODfcrJu1dsu0B/8zB3a1Zw3sLtSpA+2eTQScridJIKDAS8AKeCjhhUBIkOdBQgmcEk+HrMBxZT0RAg/xOui5m62AcUIIEqjvxn0JUYIdo0/LYAow7VCsKEKIQ+x0KHUxIfoJBggouI9kJ1BCz8EOSQhtRrQvCTDvhB5yXF9qRgbBvkIkeUZWAO56tTXaVF+qjZZWsRmm8Hix1bBaptWzmT9HllVV7TS/+rZw3yDAszzPJyCc1/f4ZJzn2STNwTFNiOVZYP0Jm5ZBjfhvQcAPiKSTPtFDV2gSoBmOBO6o7LgycRWZ0A42HOTETUwkgyhn0B1HfMFBQuiRM8GhTQqZWOYcTyYxlVz3kGKfEKxgPCsrMJyvm6o9au3Zm62Bqg4ZcWPeVBvWfLVaXxK1urXbbc1Xtutb4n2jg0CyFS4VnmMRShk35LLiRJvLUjpISm6s5nPX0cHyBAIueS0Rx5VCDoXYD5AAriSVi3APK2HQUXwv8gVCcdB04zMsnfFckecUXyIKdQIsUwxmQxdC/cxzEoViR8AxH4IliFF+AoEZWIHhoL3LdLt1dfNZ3TIXtTlxoJo7R6Y62O6WmOFGZTjXVXul7rZ27zwCJOhKsTgZex3li9mSUVrOZ05Y6sfl01MxYPNjFcp/AwLxieMHNCQkdvxY8kPXc3wDJgJK+X7ouNR3Qp4eRIkTShyJihy8CxISzyd9ajSdsBz1SRCQJC/0Ce8d4LMw9CmPfYoU4hZnZAUKYq3A7I7U3bfb9upj8AhAUdO0Wg28AKgdikfgDQwhX7hnEFB0I6bA2mE2znO5Do5ksApA2Ip5ReGAnufkSFI4XpGppxgsqJR8UQb+diMEciiIdBZFgp5SjMSLEB8EMJXkA8x7UaQnka6zkp+wQqzz5fF70iOU6IGOMA1QdgkSgHHoES/0I8GJYIpCUcCxROdnty4wxzA7qwxztHar5wruCwRkGkSS4YQkLIM7qNMIEVKWnNBxeMNxPeJH+CCKHIpOHIMgKEJbQcf5GyEA/AIoBAusIk3AHriUYaTTiSHwY45x5voRn9EQLiMWWQu4jMcRcA4+0/PpvCOElAfkQA00TyHBz8ojKIhDUdS0S0tEUyuGQ+Z+QaAIXlYs0RjIOcVRDLcgdkKMgYphGuI+xjExsIJoXycxiynVCTaoxDuoeKMVyIZvPIb8hFdMBjob9FSLEMtOaMfkkqwRD3qO+1zBAUEBbICfwk2asNysrIC4plpdUayJc+JwKI7ngIJWG85pw5qWZgAjNY2piKlu9hD49ToITHN5jugGpZHkxgABA2MD3DWD6DiQsI+pRD1ikDOg9HDmMYYi1NDEEa6zApPuufGt+iVNNHxWzqWjnbDnVZMLsmKKjs8dZH2A2ZgoJ9CY0W8E2jO7W+0Nq70tcXkwmO892x70qrVSbzDc2uit1pZ6e8PqRk8b1HulwUa6OjRzK7B2JQTK7JRwOI5cKXKNWML9MDBI5BCP6jRwDSl0Y8nDnk8lx4ndfkQD0jegrevh9B7+WhA6Xf/50cpTxN5akmv06JuKTFl+9eGuPQJbHL6t2Ka9bKt2y2ps1k272lBbo66tthathr2pZtq2aZupW1BYWq7MEAJ/VddKlyFwvHIqTH+XgZsIgpC6bSRGwMGQMN5h0zN1WtLHLYRxdeIaydQAIu/Vys8LK+/1hL0bEaIZQKAm7jYaLy2ztW22l+2R+lC1Wm8rLbNRs7v1RstUN9fsSmt3o9UtAQSOliqVl7ODwMOtrQv/ljUJHPvw5v3TKTmNTk+901Tc+PRcvInq/HQafHX20kume3m1DiOSdq8/hf022+XMtS2uqIo+Pj++44lg0e6tbXZb23YPbv7uhj2yduy2Pd+1TJWxR/WNeaY1qtqV+vLqfH1QAwjszC8/mCUEqldB4Hhl/dWUfPz4OfPfj69uKZcarq//lj7of7n762X91vqrWq6/+XDXgWPDimV150yre6SutTeXzV7dMoeDlrXaazPq9shSC+Zgq3FkWpBN/5Hg2eJedYYQeLm9vHR0VQTx8+tlff35beVyy/GAHH94fkey8tVTEQs/Nkr9i1MoMkMNNkZkNI153LZqNVBkjmJao6XaLAON4P4rbW+szRACD0qVndJVEcR//yD59Gj8EO4dBZH/8elL5OAPCYz/z8LCNVFDTLqnvx2vLafrA8x5mWEmVcwkuqi0Oij9MkMIiPMX/jt1Ejv4xxURvg/Og4XffU9EbxbUvfCpc0cx5L//8/c5FYAP9SNeQP60cHPsYEETCzcvDm4Nhj/NEAKPK2uXIXA8DvN/cs3+7ssX8ORJenh3Q+OL+5ND9refF47Zf+4qiPx3+TyC+Fj5IS96KHz4vvDRZzvVwZ8ztAK//Fqtfk0GxhB4weblztVyaPiOdziOF4ddp5CXhcPORNMZp861khOyIHKl8xra3XiY0vyr7XVHYScRxI9esOmLQleX07Ti8Jbp9eFrOVde+T4IlBb39h7OEgIPVy+QgRQCC49epBG+xQuSLhKnm4xx3MwbEl92XZ0+dWkiBe5JJGcaCckxFXKSkS9OXX4ufLo6uLAipCt+WYToDYeLhX8XRJ7j0fsxBI5fIP68q+k0pThfpPx24nI8+/TN90FgaXWw9WCGE8FPL8W91f9zdz2hbStpPL6kqk3imhRUu44RCfWSddzUC1a6Mdg+5BBDqI3wuzpFEB4v4EsPZQ97zIoFHV5x4OXQY5kpJaenR5hRIgm8WD4sb686Gfa0sBBf3h7eaQ/7jfwn/ptaOH5d+jmW5JnRjOX56fd9o/lNG/UPQ+DJcyEy7UetIAtjYmBMr1WrrlOMarZ0bRNDw9TQkGogE2kGrUw7f0Aywnee9k7cyBU50PlwW5BNSvemnXhZ7olJ75KQD8wRVLvzHvzYi6vIw599A9+k+yVuj4fSmSp+TgiclouHL74oBFZfHxTKiXEWmA6BGhWtOsKIVmxMVE3BVMUvrTrGSNKxJv2pda1piJsBAncYJzh2RxQckG8ZQIQr6X6SbXceWlZ1+TMLCUYhMC5JFtQ0N6w+7hHDZHnyyKTHnBCIlULNZxtfEgIbn/YGxwQzsACqtGkd27BXLYtotlZ3akRiKdTUSB3ZTNThmwsCARkDqwRl4AKf1GJiYY51FZbTyNUL+yovKaowvTAmlTkhIOuWRqFKd40U4xleU9gxx8u95VGiBN9A5hYCAX90r1nc+aIQWHr0Ilssn87MAj7T5CMtQhVd50yqK7ZOzZZKWipLERy2FyUiTr9pZoOApn7Ekqlh0f5OE4hGec4nm29E9U1EwJr+kWh1KkuYyojMywIVYn2UifOR3NgaFpj05Y1UCYK7aykYmyLFOCh9hwTE8hYAgVi4cPjz0AzBvBDwzQKBbwbbWz3aPAjHZmaBrlCw7co02mx+th1pwUEnxd0H2fF8LMBppEIwB5wiGg4vQNxRgb6qqbRmYknVbEPHVDJoTZofApyoWYqNg5pj2LYASENE4yjW67qFIM6pmxjphkJqtrgIFvBDMBga8QN9CLhLL0ei8ki6A4HRcD3AB2/yD9eqW2KEH4/CfUHxJvewD4HM7uulIU9wmt3rRwPjLMA0YWwdx0fgSoi+ugKNCGNNtoQDDgNyBLg6AlgLcAOyjw7Nui51gESHJSPTIaAC1RMNvIEm8hjXSSUgI4g9KbVavKVJLynVNIpspM4LAb7dVg0RYSIhuEReVmpO3VGxY6k1iqiDZYIUjY9QTeEWAIFYqXC5MkICtxCYMKcu3mTWHi4/VybNiQILnD1PByOT5sy3Umc9BKydZcjRUIM7rzdDpeg0FghEbNmhaV6iAqdzggBOEaLwgE+lkiJRNvrjBKViKrasp1VHYk6VrTfu+lFOCTCgmLc60hkhYFGzbloqsiJ1FW5IGGJwvAX3pYM1QizJgCCUYsVuYyQH5mQBwbbr4GEEuOGBBSqoji1NqddUoe7oimm1CVbqtqJrqHL/EPCX95rZo9UpEKiewD09bOJNKrcG4DhRgiM5gs06eTl+kx7NYadtpfJrfQhUr9QhfQLQgB+igcQtBJ4OQqDiqI5FLcdAmlgTEeWIbuoyF6zDaKBOVFbCvhYRwS8JJY4hCRVd5RVimkSIqLpQIxXbgToqk4VjUxeFwgDTaasWpS1iOJJGCceJVHRMiDw0zWwhS1NhgyImFrk5w0FBs1ReIK0IscDf80hvi0hFyNJNy3IEytsSTy0VY52/fwjEkpuXDx4tTYYA9OfJ+GR7nt3NZ/nRnJuTVHyZde9YTu+0PgSe5PY/jBDPzutCNtl9RMj+6cnqoCOoUBurLxEyNKq/kQwk1RTHlrmWAT9RDTFpIIRpFlbr2JA0+BE1p3bNloQYEEZZNRgrkNo1VZDsiQV8EXclirt0he3hxbRgLXfNSifR3fgYwucdFPrablMsrGGKM95dLCOpdUfuyFmhXb7FIp7gZyGQ8QiBRLh4eDBGAn0IrC3H85kRi7tduXYWH83I59ycf1XHcm5P69jZ9nlyJPrY+PQiu9l1BSsx5ypXhVC0f5MgEwJv4AFLJcCR2ETAyZGAaOmyYzgiRAqyg9Eb1XCwBM66rWk12DkCFjHFdRVHNAMRHQd6FUZmggDv6omDTFkc7CxVYoJQ1uHBbmJXdxwJzg0B1oKrOmSogjgGmooISANaaHUkykGGt2Cr9TkWOItf0ZI3N5DMXr4aI4E+BAADZ2dnuYFX9Wx5rZ+TG3oN5oxm9TM7fiBz/moEAjAoCGcLnVHBSuLDbj4XF/paPF4ipmGADzaBe4EgKfQo4YOCYUCXR3iV+ngHC1jCEUlCkmUg29IgSNOxjqhVJxgDMygO7VYH7y0XAt36p/2xDTtiW7HV2fdqGNmKn6lI6ENAmNao2NMe9huB7hdFcfDLiFMbuelBoJo/l6LeHg0fXJYer06HAOuwIfv91JyH008ayQQ/QB6PQmDp0XoBRgUuBhJFcrWdHwhFFdJSTFHQBd1MC0JaNwUlzTSAtqkooo9IMN5QBAGO4a3otgA5aYWpCBXBhCKmqJuiavalgmk7/2SSNHFRBvFTZ46g6kmzKk6XrY7KU+3uNNHT7dRFKOEpEChcHhztLN0JgXs3iBbOi+ONbnz6OZRNuiGhP5w9z2RObtJdg25lpihbW7q+tQV7HTZpSFXY3tyCY4WlflC6RVlh1zrH8N6ClF51rpozd3LTS1i03Vxluv+DTPz2omawv+izlVN68lTwzuc0eeplPFg8bH4z7gYWDIEn8X1pfZx5llafrWRDHQzECmQ3M6IZvJoqC+wpCjPv/6P2Uq/u0hBCYMIo04N2cE5zxYouDXjRK6qNH7ZnLMouaPkMorBdFIr6vSCgefh2nJEXDIHlXOai8GhSqzuvYwwD4Av8pQPpPJVJ9YPJ1GBkmRqJNHuft983rrYnhaKsxGBt+XgVbDzSXZjlc9WO5eIezkoBBDzUn4MLOkfNZMITAi79zybcjguFAHMDE0kAXMHO6zJgIBzzryT2QtL5fibvxbafvm/Y25Oz3L/bj3Fm2/nfzOKdFqFND63GU433T2e7cveK8pn9C9QsxmZ/LswQEJ0UCCwUAjCYvLqITiQBph1Zj2aP98LR0wexvVBTOt/d92JXf22Qq/2vx3Yb77xczu45vTwuzuwGTsvJwuFUBCwtEgGpiw+TqaczLIiFssUSOINEsnDcbEpebPdd49/SV2TfNt55Kn+Y3dybFQH+WDi5edn0H+1s/LYQYA+ULrLrU0ig4wv8m83NUjiaOI0mCwehYw/2tx8aP3o64f/bQj82/vnBQ/mDwl45MbNctFQ8vsy+nYqARUEAxsWpi+arT1MRwGLCoxfF7HGxFI4lTmPRcMmD/fkPjV/Kpa/Gyr80fvrv7MXD5VhiJgpYeZCIlvYKbKnxdDpeWhAF5PJXF9lXj1fvQMDSxuqzV+WD7MEeYwK/p0edv/6u8Y/vH9yH+fubL2jf/73x06/3XekKuIByKVnMXmbL65/u6In77v0/ugCIZ84vDj6DAPZ84NH6273/sXc9oY1jZ3xOTj1gN4NycMgfigerJXHi6KQohsgQwdvgNl6GeEA+rH2ZOQT0eCdPeiu8oReXDkilogsCgQ8hSCdfMgiN9+JdSptDe4mgFBooopDuYbZQ9jKHfU/2JI7jOM6MSzSpfraw/J7/Sd9Pv/d9n6XvbQYk2F18+XAqMS4IBf5UT9wXvKpTCtzmHTdZn15nRoV1ZXvz59+U1qrTo9SYmTBiGo1aJevJykjmnTsEmZ3lEiFBaWV2dnd+kQwJLx+OgUAFHt4bBCowuY9bXl6c3yX236AE2J5amEmOYsADRZvgTVFEUWQ5Xn/STNRGMq8vOqwSEjza3HxcIloQYPdGzL76aee7+d17g0XiC7ya1IeRPUj8hZUSDbM2S4lyJneDISacGeEcSdePmss3f3HfaFAtJ2a3CQueffZ4u1TaGAPviDv4buPeYOW7zh8ntzmlEomvNon9t2frC2PYgZ8sjo5Omiv1WxAgIEEuUztO7G5sf/Zsczz87m3n93/evEfo/OOvE/28Z49L8/Wd2sw4dpgwnXcfrpVrtyNANziYnqkuHNenqA87hgj8rdPp/OtdpAJDP4xE2VNrOwvVw1xyLDssTBK1WjUz7hdfZUFu+jBTrdbG+Z7jTueX1YV7A7I9v92aoBGIFabHN0MymcxNaKFIpz/I/uc8SCfHQvoPne+fJ+8Nnh92vprk5tzSCOkJLQ8+0vpjiwXh29On3//mZ8mrNE/3ep8G++HBJwLyQ6c7Xz2IcOOOenp2dj4PXe9xf//s7Gnyond/oHe/1xt6RBS4eRed0QILW1tb/70E0rC+fnDQLUFxbe90OqLAp47Dg4P1LWpSYuliH9a7ht9ff2Gvk+7hvVvrxS/2w06CXESBkSPA/ot1ashi0bYxxqcAoQoiCwAY2wTE2Pvr9qlNe8FgL2UCociLXKg3MUncwVxk6WtR04rr1PqgskTgk9t7kPXKUgphamnkvG+7gF+pIIApDdBPQq0D//xPp/OLdGTq60TgW66CceWycS+gKXNzKQYJeV282hnwpVLBlUIj1AdZ8m2n82Vk6mux6MSGWz9ATKE1OZXsUAq8Z4KWbxyGehu/7LyNDH0tni86IxgQqIBCKMBZ7PUv8vONmXBv5dtIBEYMBCMo4PsxJdutzZt1NCG4ui0Wi/mDb9DungJno2e9/9Xo7v1cpAJXrU9MLaDTF8XiQS8dtBVkhg5I4HCK4rH+wcO/cxXI/agYBKijMOoF6y++iFRgkADCabEb9m/1coHF7kNvlxWLp/GUH5aBIPlj+33K8gNRTH0bqcAl9w4UaaqgmysIsgUYkPAPdxMFQTKA7jakhWMgeP4XJfhdNu4u3Xt/ywXe9+GBVwIuE6nABQNYm1qfpgqQwPSq/itZpVewXxBoMoDyoIhZPwwqkPy1AoBAHBXqq3QfKF+FoIAHae+/QL/XjZigWei9B6G49DJSgXOwebtoY8RQw1/M1ZA9Xw9WGATIsSNxlRCowPS/swPnWSPJ87w8iMcFREkgCHRNoIjTJ8Dy8EARB0UqRSpwDs5RGGZgsg5FySqDE3gwc1ndCYMKHH6dvVx5I45d2TR4AQBNVHkEhBi1uBYjxz4gIQ2wTdcevERXKqUjFeijQL/xe4f9VQqQwUGXwuALzAyhgJpnfFO3VE+WdceAlmZAUzcglAQTtrDq4ogCo1Vgboi5R1DADx0F2jK0bB5CLg+tAnRbMg/boi7zpml7hixGFBipAv4gBbLZLOpSADGfjAq4JI5BEGINsorstlwecrZl2JapQxcWIgrcTgVMCF0SCABGsBzAAPApqIALVdVRCeLQsExD1TVZsi1oe6Ynq7LjqhEFbqMC0JNgK+u285JsSLzrKanQqwDQ266re4zWYqU2HyMiwHgF4FhAshiv7TmSJwgRBcZXAcMi46diQpOXDeJayS0UehVgaMQKsICwAGyAsA3iWGAQZkgbJiMEwPFIBW6jAjqhgES8acXgyRpUUehVIAj1r7s2e0AAIgrcrAKwpcuWarRhFrYluW2a4VeBeBwBNGB5NLp0V6QCI1SAuIMesKBhcB5staBhDrqDvha+gUBz2EsHuyDmhYgC16jA3x3/8gkAV/ICyhyaS2UVRRGUOUaZU5TQUwA4EJpxgDGgQz9GcYx1l/7Rhchz4hdgwEQUOGdA+hVfEEXNv14FugliZY4EAvSeSl1SAd/XRJYfmBThjinA2C0Yy6OCqnJKW3XbEm7pbgs7qpkX2iYPPNMCEQXOkay+4TlWJCzQemowkCCmh72SzQ7NGOp8UPNCf72YC5UKoLyh5gVDVaEkm3pb5SCrmixUXc4lPo0uu3xEgT4ZmDkuNXhpj10VA2iiI2Xp6YJzCoOQQBiQpVPTK4py+W8DygxCgQIn8U8ai9VkqCjAYNuCluy2DR2ydsEwWralWtAuxmS1ZeiWq6MoL9AnA5lyYuNNoyFJHLdHmMBKUs/GedWwUgqTYgkNyBggCIySIgtZoQsRgaxu8UeN5vxO9U7PvRviC0ieJVvQbfF5mEfYlUXbMx3Z8yTD9CzEkwYUUaCPA7nMwk5it9Q8OWk0+AavS/SYzyqCaXgeEnUe5aUYJxV4XWc4i0+xFs8ouk7EoaB/s7F8vFCdvtvLjIdRwIAe5g1DF9UCAo4HgN7GJKqRCmSjEKF2pAIDg0FuOlNdKB+vJRbnP994JNEpUzQNtQ3OFg0oW7qBPVOSYYsnjrZoGtDyZMOJayy//eE1L/6nAwECAAsAACQAgSYJSAsJC8hz0gbiIMoODmNBMqhCQsuQfO5Qx9D34xXL8CyILcMyiI5KkLONNkaW7JnQMvSlpZjIzyfTd7/nhqWGghRgcJJQX8VGoW+JKHBNhEhrSNS5WBAdVgqIhx5EHvGpltqEAj422kjzyJCqE6X1sK/xoTjhbmiC+LaF/SMK9GHNoQHi0hJuybDtm7Ksi1CWVQmKmAwEhmhCWCArVkUU9VBQ4PCNo8SYj2NAVl+JLH8uBbWGxAZpApGXEPB5DqACz+1pHGEFWSEtkl/QJV/c05+Uw1BlZHqWL1Dn5cOhsM7rcqQCF4mCxAnv7FEWLC0RIlQqvl8BqLKEaOqoskQFQhT9VY7Xj2YzYaBArnyi50WR/eCbWJCsZiaiwMUerdU3Thq8xO0V2NXVXsZo9XxZXWX3OIfnjxqlxEIoisykM1MnH1fRU3/dHDq52P9viJgp1+c3mjRLIEnBpGV73B5BMDmZFNRAbTRLu/VyNRxlhtK5WmKl+THYnt3JJCPLX0oWzdTKx/Xl2Y1Ss/n1CU0ZBSBrj8j+Ks0uJo7Ltcx0MkSkPV77COzUDiMGDEaHSZotqtF0UT0x9XD5h8nJycjI1XCx85YZnPELlQUPCPENqkQrILASCskgBPhGGwLYkwGfvr7ASvB4ERSoqooAA0x/CJw7qUQKMQoIDReBAR+MMRoko2AUjIJRMApGwSgYBaNgFBANAP257OaHspNcAAAAAElFTkSuQmCC;" vertex="1" parent="1">
          <mxGeometry x="470" y="-565" width="754.31" height="565" as="geometry" />
        </mxCell>
      </root>
    </mxGraphModel>
  </diagram>
</mxfile>
